<svg xmlns="http://www.w3.org/2000/svg" viewBox="0 0 260 230" width="260" height="230" role="img" aria-label="Rule 30 cellular automaton filling row by row">
<!-- Baked from src/components/heroLines/CellularAutomataFigure.tsx loop mode: Rule 30 grid (:25-49), row/70ms discrete reveal via clipPath rect height (:97-115,223-227), fill 3500ms + hold 1600ms = 5.1s cycle. Colors: dots #755CFE at .85/.3 (:185-187,237-239). Reduced motion: full grid. -->
<style>
  @media (prefers-reduced-motion: reduce) {
    #rrect { height: 100px !important; } /* static completed grid */
  }
</style>
<!-- window chrome: hero-widgets/page.tsx:30-72 -->
<rect x="0.25" y="0.25" width="259.5" height="5.5" fill="none" stroke="#755CFE" stroke-width="0.5"/>
<rect x="0.25" y="5.75" width="259.5" height="224" fill="none" stroke="#755CFE" stroke-width="0.5"/>
<text x="8" y="20.5" font-family="ui-monospace, SFMono-Regular, Menlo, monospace" font-size="8" letter-spacing="0.4" fill="#755CFE">LEM. 2.3</text>
<svg x="36" y="24" width="188" height="188" viewBox="0 0 100 100">
<defs>
  <clipPath id="reveal">
    <rect id="rrect" x="0" y="0" width="100" height="9.84">
      <animate attributeName="height" calcMode="discrete" dur="5.1s" repeatCount="indefinite"
        values="9.84;11.68;13.52;15.36;17.2;19.04;20.88;22.72;24.56;26.4;28.24;30.08;31.92;33.76;35.6;37.44;39.28;41.12;42.96;44.8;46.64;48.48;50.32;52.16;54;55.84;57.68;59.52;61.36;63.2;65.04;66.88;68.72;70.56;72.4;74.24;76.08;77.92;79.76;81.6;83.44;85.28;87.12;88.96;90.8;92.64;94.48;96.32;98.16;100" keyTimes="0;0.01373;0.02745;0.04118;0.05490;0.06863;0.08235;0.09608;0.10980;0.12353;0.13725;0.15098;0.16471;0.17843;0.19216;0.20588;0.21961;0.23333;0.24706;0.26078;0.27451;0.28824;0.30196;0.31569;0.32941;0.34314;0.35686;0.37059;0.38431;0.39804;0.41176;0.42549;0.43922;0.45294;0.46667;0.48039;0.49412;0.50784;0.52157;0.53529;0.54902;0.56275;0.57647;0.59020;0.60392;0.61765;0.63137;0.64510;0.65882;0.67255"/>
    </rect>
  </clipPath>
</defs>
<g clip-path="url(#reveal)">
  <g fill="#755CFE" opacity="0.3"><circle cx="1.25" cy="8.92" r="0.22"/><circle cx="3.75" cy="8.92" r="0.22"/><circle cx="6.25" cy="8.92" r="0.22"/><circle cx="8.75" cy="8.92" r="0.22"/><circle cx="11.25" cy="8.92" r="0.22"/><circle cx="13.75" cy="8.92" r="0.22"/><circle cx="16.25" cy="8.92" r="0.22"/><circle cx="18.75" cy="8.92" r="0.22"/><circle cx="21.25" cy="8.92" r="0.22"/><circle cx="23.75" cy="8.92" r="0.22"/><circle cx="26.25" cy="8.92" r="0.22"/><circle cx="28.75" cy="8.92" r="0.22"/><circle cx="31.25" cy="8.92" r="0.22"/><circle cx="33.75" cy="8.92" r="0.22"/><circle cx="36.25" cy="8.92" r="0.22"/><circle cx="38.75" cy="8.92" r="0.22"/><circle cx="41.25" cy="8.92" r="0.22"/><circle cx="43.75" cy="8.92" r="0.22"/><circle cx="46.25" cy="8.92" r="0.22"/><circle cx="48.75" cy="8.92" r="0.22"/><circle cx="53.75" cy="8.92" r="0.22"/><circle cx="56.25" cy="8.92" r="0.22"/><circle cx="58.75" cy="8.92" r="0.22"/><circle cx="61.25" cy="8.92" r="0.22"/><circle cx="63.75" cy="8.92" r="0.22"/><circle cx="66.25" cy="8.92" r="0.22"/><circle cx="68.75" cy="8.92" r="0.22"/><circle cx="71.25" cy="8.92" r="0.22"/><circle cx="73.75" cy="8.92" r="0.22"/><circle cx="76.25" cy="8.92" r="0.22"/><circle cx="78.75" cy="8.92" r="0.22"/><circle cx="81.25" cy="8.92" r="0.22"/><circle cx="83.75" cy="8.92" r="0.22"/><circle cx="86.25" cy="8.92" r="0.22"/><circle cx="88.75" cy="8.92" r="0.22"/><circle cx="91.25" cy="8.92" r="0.22"/><circle cx="93.75" cy="8.92" r="0.22"/><circle cx="96.25" cy="8.92" r="0.22"/><circle cx="98.75" cy="8.92" r="0.22"/><circle cx="1.25" cy="10.76" r="0.22"/><circle cx="3.75" cy="10.76" r="0.22"/><circle cx="6.25" cy="10.76" r="0.22"/><circle cx="8.75" cy="10.76" r="0.22"/><circle cx="11.25" cy="10.76" r="0.22"/><circle cx="13.75" cy="10.76" r="0.22"/><circle cx="16.25" cy="10.76" r="0.22"/><circle cx="18.75" cy="10.76" r="0.22"/><circle cx="21.25" cy="10.76" r="0.22"/><circle cx="23.75" cy="10.76" r="0.22"/><circle cx="26.25" cy="10.76" r="0.22"/><circle cx="28.75" cy="10.76" r="0.22"/><circle cx="31.25" cy="10.76" r="0.22"/><circle cx="33.75" cy="10.76" r="0.22"/><circle cx="36.25" cy="10.76" r="0.22"/><circle cx="38.75" cy="10.76" r="0.22"/><circle cx="41.25" cy="10.76" r="0.22"/><circle cx="43.75" cy="10.76" r="0.22"/><circle cx="46.25" cy="10.76" r="0.22"/><circle cx="56.25" cy="10.76" r="0.22"/><circle cx="58.75" cy="10.76" r="0.22"/><circle cx="61.25" cy="10.76" r="0.22"/><circle cx="63.75" cy="10.76" r="0.22"/><circle cx="66.25" cy="10.76" r="0.22"/><circle cx="68.75" cy="10.76" r="0.22"/><circle cx="71.25" cy="10.76" r="0.22"/><circle cx="73.75" cy="10.76" r="0.22"/><circle cx="76.25" cy="10.76" r="0.22"/><circle cx="78.75" cy="10.76" r="0.22"/><circle cx="81.25" cy="10.76" r="0.22"/><circle cx="83.75" cy="10.76" r="0.22"/><circle cx="86.25" cy="10.76" r="0.22"/><circle cx="88.75" cy="10.76" r="0.22"/><circle cx="91.25" cy="10.76" r="0.22"/><circle cx="93.75" cy="10.76" r="0.22"/><circle cx="96.25" cy="10.76" r="0.22"/><circle cx="98.75" cy="10.76" r="0.22"/><circle cx="1.25" cy="12.6" r="0.22"/><circle cx="3.75" cy="12.6" r="0.22"/><circle cx="6.25" cy="12.6" r="0.22"/><circle cx="8.75" cy="12.6" r="0.22"/><circle cx="11.25" cy="12.6" r="0.22"/><circle cx="13.75" cy="12.6" r="0.22"/><circle cx="16.25" cy="12.6" r="0.22"/><circle cx="18.75" cy="12.6" r="0.22"/><circle cx="21.25" cy="12.6" r="0.22"/><circle cx="23.75" cy="12.6" r="0.22"/><circle cx="26.25" cy="12.6" r="0.22"/><circle cx="28.75" cy="12.6" r="0.22"/><circle cx="31.25" cy="12.6" r="0.22"/><circle cx="33.75" cy="12.6" r="0.22"/><circle cx="36.25" cy="12.6" r="0.22"/><circle cx="38.75" cy="12.6" r="0.22"/><circle cx="41.25" cy="12.6" r="0.22"/><circle cx="43.75" cy="12.6" r="0.22"/><circle cx="51.25" cy="12.6" r="0.22"/><circle cx="53.75" cy="12.6" r="0.22"/><circle cx="58.75" cy="12.6" r="0.22"/><circle cx="61.25" cy="12.6" r="0.22"/><circle cx="63.75" cy="12.6" r="0.22"/><circle cx="66.25" cy="12.6" r="0.22"/><circle cx="68.75" cy="12.6" r="0.22"/><circle cx="71.25" cy="12.6" r="0.22"/><circle cx="73.75" cy="12.6" r="0.22"/><circle cx="76.25" cy="12.6" r="0.22"/><circle cx="78.75" cy="12.6" r="0.22"/><circle cx="81.25" cy="12.6" r="0.22"/><circle cx="83.75" cy="12.6" r="0.22"/><circle cx="86.25" cy="12.6" r="0.22"/><circle cx="88.75" cy="12.6" r="0.22"/><circle cx="91.25" cy="12.6" r="0.22"/><circle cx="93.75" cy="12.6" r="0.22"/><circle cx="96.25" cy="12.6" r="0.22"/><circle cx="98.75" cy="12.6" r="0.22"/><circle cx="1.25" cy="14.44" r="0.22"/><circle cx="3.75" cy="14.44" r="0.22"/><circle cx="6.25" cy="14.44" r="0.22"/><circle cx="8.75" cy="14.44" r="0.22"/><circle cx="11.25" cy="14.44" r="0.22"/><circle cx="13.75" cy="14.44" r="0.22"/><circle cx="16.25" cy="14.44" r="0.22"/><circle cx="18.75" cy="14.44" r="0.22"/><circle cx="21.25" cy="14.44" r="0.22"/><circle cx="23.75" cy="14.44" r="0.22"/><circle cx="26.25" cy="14.44" r="0.22"/><circle cx="28.75" cy="14.44" r="0.22"/><circle cx="31.25" cy="14.44" r="0.22"/><circle cx="33.75" cy="14.44" r="0.22"/><circle cx="36.25" cy="14.44" r="0.22"/><circle cx="38.75" cy="14.44" r="0.22"/><circle cx="41.25" cy="14.44" r="0.22"/><circle cx="48.75" cy="14.44" r="0.22"/><circle cx="61.25" cy="14.44" r="0.22"/><circle cx="63.75" cy="14.44" r="0.22"/><circle cx="66.25" cy="14.44" r="0.22"/><circle cx="68.75" cy="14.44" r="0.22"/><circle cx="71.25" cy="14.44" r="0.22"/><circle cx="73.75" cy="14.44" r="0.22"/><circle cx="76.25" cy="14.44" r="0.22"/><circle cx="78.75" cy="14.44" r="0.22"/><circle cx="81.25" cy="14.44" r="0.22"/><circle cx="83.75" cy="14.44" r="0.22"/><circle cx="86.25" cy="14.44" r="0.22"/><circle cx="88.75" cy="14.44" r="0.22"/><circle cx="91.25" cy="14.44" r="0.22"/><circle cx="93.75" cy="14.44" r="0.22"/><circle cx="96.25" cy="14.44" r="0.22"/><circle cx="98.75" cy="14.44" r="0.22"/><circle cx="1.25" cy="16.28" r="0.22"/><circle cx="3.75" cy="16.28" r="0.22"/><circle cx="6.25" cy="16.28" r="0.22"/><circle cx="8.75" cy="16.28" r="0.22"/><circle cx="11.25" cy="16.28" r="0.22"/><circle cx="13.75" cy="16.28" r="0.22"/><circle cx="16.25" cy="16.28" r="0.22"/><circle cx="18.75" cy="16.28" r="0.22"/><circle cx="21.25" cy="16.28" r="0.22"/><circle cx="23.75" cy="16.28" r="0.22"/><circle cx="26.25" cy="16.28" r="0.22"/><circle cx="28.75" cy="16.28" r="0.22"/><circle cx="31.25" cy="16.28" r="0.22"/><circle cx="33.75" cy="16.28" r="0.22"/><circle cx="36.25" cy="16.28" r="0.22"/><circle cx="38.75" cy="16.28" r="0.22"/><circle cx="46.25" cy="16.28" r="0.22"/><circle cx="48.75" cy="16.28" r="0.22"/><circle cx="53.75" cy="16.28" r="0.22"/><circle cx="56.25" cy="16.28" r="0.22"/><circle cx="58.75" cy="16.28" r="0.22"/><circle cx="63.75" cy="16.28" r="0.22"/><circle cx="66.25" cy="16.28" r="0.22"/><circle cx="68.75" cy="16.28" r="0.22"/><circle cx="71.25" cy="16.28" r="0.22"/><circle cx="73.75" cy="16.28" r="0.22"/><circle cx="76.25" cy="16.28" r="0.22"/><circle cx="78.75" cy="16.28" r="0.22"/><circle cx="81.25" cy="16.28" r="0.22"/><circle cx="83.75" cy="16.28" r="0.22"/><circle cx="86.25" cy="16.28" r="0.22"/><circle cx="88.75" cy="16.28" r="0.22"/><circle cx="91.25" cy="16.28" r="0.22"/><circle cx="93.75" cy="16.28" r="0.22"/><circle cx="96.25" cy="16.28" r="0.22"/><circle cx="98.75" cy="16.28" r="0.22"/><circle cx="1.25" cy="18.12" r="0.22"/><circle cx="3.75" cy="18.12" r="0.22"/><circle cx="6.25" cy="18.12" r="0.22"/><circle cx="8.75" cy="18.12" r="0.22"/><circle cx="11.25" cy="18.12" r="0.22"/><circle cx="13.75" cy="18.12" r="0.22"/><circle cx="16.25" cy="18.12" r="0.22"/><circle cx="18.75" cy="18.12" r="0.22"/><circle cx="21.25" cy="18.12" r="0.22"/><circle cx="23.75" cy="18.12" r="0.22"/><circle cx="26.25" cy="18.12" r="0.22"/><circle cx="28.75" cy="18.12" r="0.22"/><circle cx="31.25" cy="18.12" r="0.22"/><circle cx="33.75" cy="18.12" r="0.22"/><circle cx="36.25" cy="18.12" r="0.22"/><circle cx="43.75" cy="18.12" r="0.22"/><circle cx="56.25" cy="18.12" r="0.22"/><circle cx="66.25" cy="18.12" r="0.22"/><circle cx="68.75" cy="18.12" r="0.22"/><circle cx="71.25" cy="18.12" r="0.22"/><circle cx="73.75" cy="18.12" r="0.22"/><circle cx="76.25" cy="18.12" r="0.22"/><circle cx="78.75" cy="18.12" r="0.22"/><circle cx="81.25" cy="18.12" r="0.22"/><circle cx="83.75" cy="18.12" r="0.22"/><circle cx="86.25" cy="18.12" r="0.22"/><circle cx="88.75" cy="18.12" r="0.22"/><circle cx="91.25" cy="18.12" r="0.22"/><circle cx="93.75" cy="18.12" r="0.22"/><circle cx="96.25" cy="18.12" r="0.22"/><circle cx="98.75" cy="18.12" r="0.22"/><circle cx="1.25" cy="19.96" r="0.22"/><circle cx="3.75" cy="19.96" r="0.22"/><circle cx="6.25" cy="19.96" r="0.22"/><circle cx="8.75" cy="19.96" r="0.22"/><circle cx="11.25" cy="19.96" r="0.22"/><circle cx="13.75" cy="19.96" r="0.22"/><circle cx="16.25" cy="19.96" r="0.22"/><circle cx="18.75" cy="19.96" r="0.22"/><circle cx="21.25" cy="19.96" r="0.22"/><circle cx="23.75" cy="19.96" r="0.22"/><circle cx="26.25" cy="19.96" r="0.22"/><circle cx="28.75" cy="19.96" r="0.22"/><circle cx="31.25" cy="19.96" r="0.22"/><circle cx="33.75" cy="19.96" r="0.22"/><circle cx="41.25" cy="19.96" r="0.22"/><circle cx="43.75" cy="19.96" r="0.22"/><circle cx="48.75" cy="19.96" r="0.22"/><circle cx="51.25" cy="19.96" r="0.22"/><circle cx="53.75" cy="19.96" r="0.22"/><circle cx="56.25" cy="19.96" r="0.22"/><circle cx="61.25" cy="19.96" r="0.22"/><circle cx="63.75" cy="19.96" r="0.22"/><circle cx="68.75" cy="19.96" r="0.22"/><circle cx="71.25" cy="19.96" r="0.22"/><circle cx="73.75" cy="19.96" r="0.22"/><circle cx="76.25" cy="19.96" r="0.22"/><circle cx="78.75" cy="19.96" r="0.22"/><circle cx="81.25" cy="19.96" r="0.22"/><circle cx="83.75" cy="19.96" r="0.22"/><circle cx="86.25" cy="19.96" r="0.22"/><circle cx="88.75" cy="19.96" r="0.22"/><circle cx="91.25" cy="19.96" r="0.22"/><circle cx="93.75" cy="19.96" r="0.22"/><circle cx="96.25" cy="19.96" r="0.22"/><circle cx="98.75" cy="19.96" r="0.22"/><circle cx="1.25" cy="21.8" r="0.22"/><circle cx="3.75" cy="21.8" r="0.22"/><circle cx="6.25" cy="21.8" r="0.22"/><circle cx="8.75" cy="21.8" r="0.22"/><circle cx="11.25" cy="21.8" r="0.22"/><circle cx="13.75" cy="21.8" r="0.22"/><circle cx="16.25" cy="21.8" r="0.22"/><circle cx="18.75" cy="21.8" r="0.22"/><circle cx="21.25" cy="21.8" r="0.22"/><circle cx="23.75" cy="21.8" r="0.22"/><circle cx="26.25" cy="21.8" r="0.22"/><circle cx="28.75" cy="21.8" r="0.22"/><circle cx="31.25" cy="21.8" r="0.22"/><circle cx="38.75" cy="21.8" r="0.22"/><circle cx="51.25" cy="21.8" r="0.22"/><circle cx="53.75" cy="21.8" r="0.22"/><circle cx="71.25" cy="21.8" r="0.22"/><circle cx="73.75" cy="21.8" r="0.22"/><circle cx="76.25" cy="21.8" r="0.22"/><circle cx="78.75" cy="21.8" r="0.22"/><circle cx="81.25" cy="21.8" r="0.22"/><circle cx="83.75" cy="21.8" r="0.22"/><circle cx="86.25" cy="21.8" r="0.22"/><circle cx="88.75" cy="21.8" r="0.22"/><circle cx="91.25" cy="21.8" r="0.22"/><circle cx="93.75" cy="21.8" r="0.22"/><circle cx="96.25" cy="21.8" r="0.22"/><circle cx="98.75" cy="21.8" r="0.22"/><circle cx="1.25" cy="23.64" r="0.22"/><circle cx="3.75" cy="23.64" r="0.22"/><circle cx="6.25" cy="23.64" r="0.22"/><circle cx="8.75" cy="23.64" r="0.22"/><circle cx="11.25" cy="23.64" r="0.22"/><circle cx="13.75" cy="23.64" r="0.22"/><circle cx="16.25" cy="23.64" r="0.22"/><circle cx="18.75" cy="23.64" r="0.22"/><circle cx="21.25" cy="23.64" r="0.22"/><circle cx="23.75" cy="23.64" r="0.22"/><circle cx="26.25" cy="23.64" r="0.22"/><circle cx="28.75" cy="23.64" r="0.22"/><circle cx="36.25" cy="23.64" r="0.22"/><circle cx="38.75" cy="23.64" r="0.22"/><circle cx="43.75" cy="23.64" r="0.22"/><circle cx="46.25" cy="23.64" r="0.22"/><circle cx="48.75" cy="23.64" r="0.22"/><circle cx="58.75" cy="23.64" r="0.22"/><circle cx="61.25" cy="23.64" r="0.22"/><circle cx="63.75" cy="23.64" r="0.22"/><circle cx="66.25" cy="23.64" r="0.22"/><circle cx="68.75" cy="23.64" r="0.22"/><circle cx="73.75" cy="23.64" r="0.22"/><circle cx="76.25" cy="23.64" r="0.22"/><circle cx="78.75" cy="23.64" r="0.22"/><circle cx="81.25" cy="23.64" r="0.22"/><circle cx="83.75" cy="23.64" r="0.22"/><circle cx="86.25" cy="23.64" r="0.22"/><circle cx="88.75" cy="23.64" r="0.22"/><circle cx="91.25" cy="23.64" r="0.22"/><circle cx="93.75" cy="23.64" r="0.22"/><circle cx="96.25" cy="23.64" r="0.22"/><circle cx="98.75" cy="23.64" r="0.22"/><circle cx="1.25" cy="25.48" r="0.22"/><circle cx="3.75" cy="25.48" r="0.22"/><circle cx="6.25" cy="25.48" r="0.22"/><circle cx="8.75" cy="25.48" r="0.22"/><circle cx="11.25" cy="25.48" r="0.22"/><circle cx="13.75" cy="25.48" r="0.22"/><circle cx="16.25" cy="25.48" r="0.22"/><circle cx="18.75" cy="25.48" r="0.22"/><circle cx="21.25" cy="25.48" r="0.22"/><circle cx="23.75" cy="25.48" r="0.22"/><circle cx="26.25" cy="25.48" r="0.22"/><circle cx="33.75" cy="25.48" r="0.22"/><circle cx="46.25" cy="25.48" r="0.22"/><circle cx="53.75" cy="25.48" r="0.22"/><circle cx="56.25" cy="25.48" r="0.22"/><circle cx="61.25" cy="25.48" r="0.22"/><circle cx="63.75" cy="25.48" r="0.22"/><circle cx="66.25" cy="25.48" r="0.22"/><circle cx="76.25" cy="25.48" r="0.22"/><circle cx="78.75" cy="25.48" r="0.22"/><circle cx="81.25" cy="25.48" r="0.22"/><circle cx="83.75" cy="25.48" r="0.22"/><circle cx="86.25" cy="25.48" r="0.22"/><circle cx="88.75" cy="25.48" r="0.22"/><circle cx="91.25" cy="25.48" r="0.22"/><circle cx="93.75" cy="25.48" r="0.22"/><circle cx="96.25" cy="25.48" r="0.22"/><circle cx="98.75" cy="25.48" r="0.22"/><circle cx="1.25" cy="27.32" r="0.22"/><circle cx="3.75" cy="27.32" r="0.22"/><circle cx="6.25" cy="27.32" r="0.22"/><circle cx="8.75" cy="27.32" r="0.22"/><circle cx="11.25" cy="27.32" r="0.22"/><circle cx="13.75" cy="27.32" r="0.22"/><circle cx="16.25" cy="27.32" r="0.22"/><circle cx="18.75" cy="27.32" r="0.22"/><circle cx="21.25" cy="27.32" r="0.22"/><circle cx="23.75" cy="27.32" r="0.22"/><circle cx="31.25" cy="27.32" r="0.22"/><circle cx="33.75" cy="27.32" r="0.22"/><circle cx="38.75" cy="27.32" r="0.22"/><circle cx="41.25" cy="27.32" r="0.22"/><circle cx="43.75" cy="27.32" r="0.22"/><circle cx="46.25" cy="27.32" r="0.22"/><circle cx="51.25" cy="27.32" r="0.22"/><circle cx="63.75" cy="27.32" r="0.22"/><circle cx="71.25" cy="27.32" r="0.22"/><circle cx="73.75" cy="27.32" r="0.22"/><circle cx="78.75" cy="27.32" r="0.22"/><circle cx="81.25" cy="27.32" r="0.22"/><circle cx="83.75" cy="27.32" r="0.22"/><circle cx="86.25" cy="27.32" r="0.22"/><circle cx="88.75" cy="27.32" r="0.22"/><circle cx="91.25" cy="27.32" r="0.22"/><circle cx="93.75" cy="27.32" r="0.22"/><circle cx="96.25" cy="27.32" r="0.22"/><circle cx="98.75" cy="27.32" r="0.22"/><circle cx="1.25" cy="29.16" r="0.22"/><circle cx="3.75" cy="29.16" r="0.22"/><circle cx="6.25" cy="29.16" r="0.22"/><circle cx="8.75" cy="29.16" r="0.22"/><circle cx="11.25" cy="29.16" r="0.22"/><circle cx="13.75" cy="29.16" r="0.22"/><circle cx="16.25" cy="29.16" r="0.22"/><circle cx="18.75" cy="29.16" r="0.22"/><circle cx="21.25" cy="29.16" r="0.22"/><circle cx="28.75" cy="29.16" r="0.22"/><circle cx="41.25" cy="29.16" r="0.22"/><circle cx="43.75" cy="29.16" r="0.22"/><circle cx="51.25" cy="29.16" r="0.22"/><circle cx="56.25" cy="29.16" r="0.22"/><circle cx="58.75" cy="29.16" r="0.22"/><circle cx="61.25" cy="29.16" r="0.22"/><circle cx="63.75" cy="29.16" r="0.22"/><circle cx="68.75" cy="29.16" r="0.22"/><circle cx="81.25" cy="29.16" r="0.22"/><circle cx="83.75" cy="29.16" r="0.22"/><circle cx="86.25" cy="29.16" r="0.22"/><circle cx="88.75" cy="29.16" r="0.22"/><circle cx="91.25" cy="29.16" r="0.22"/><circle cx="93.75" cy="29.16" r="0.22"/><circle cx="96.25" cy="29.16" r="0.22"/><circle cx="98.75" cy="29.16" r="0.22"/><circle cx="1.25" cy="31" r="0.22"/><circle cx="3.75" cy="31" r="0.22"/><circle cx="6.25" cy="31" r="0.22"/><circle cx="8.75" cy="31" r="0.22"/><circle cx="11.25" cy="31" r="0.22"/><circle cx="13.75" cy="31" r="0.22"/><circle cx="16.25" cy="31" r="0.22"/><circle cx="18.75" cy="31" r="0.22"/><circle cx="26.25" cy="31" r="0.22"/><circle cx="28.75" cy="31" r="0.22"/><circle cx="33.75" cy="31" r="0.22"/><circle cx="36.25" cy="31" r="0.22"/><circle cx="38.75" cy="31" r="0.22"/><circle cx="48.75" cy="31" r="0.22"/><circle cx="51.25" cy="31" r="0.22"/><circle cx="58.75" cy="31" r="0.22"/><circle cx="61.25" cy="31" r="0.22"/><circle cx="68.75" cy="31" r="0.22"/><circle cx="73.75" cy="31" r="0.22"/><circle cx="76.25" cy="31" r="0.22"/><circle cx="78.75" cy="31" r="0.22"/><circle cx="83.75" cy="31" r="0.22"/><circle cx="86.25" cy="31" r="0.22"/><circle cx="88.75" cy="31" r="0.22"/><circle cx="91.25" cy="31" r="0.22"/><circle cx="93.75" cy="31" r="0.22"/><circle cx="96.25" cy="31" r="0.22"/><circle cx="98.75" cy="31" r="0.22"/><circle cx="1.25" cy="32.84" r="0.22"/><circle cx="3.75" cy="32.84" r="0.22"/><circle cx="6.25" cy="32.84" r="0.22"/><circle cx="8.75" cy="32.84" r="0.22"/><circle cx="11.25" cy="32.84" r="0.22"/><circle cx="13.75" cy="32.84" r="0.22"/><circle cx="16.25" cy="32.84" r="0.22"/><circle cx="23.75" cy="32.84" r="0.22"/><circle cx="36.25" cy="32.84" r="0.22"/><circle cx="43.75" cy="32.84" r="0.22"/><circle cx="46.25" cy="32.84" r="0.22"/><circle cx="56.25" cy="32.84" r="0.22"/><circle cx="66.25" cy="32.84" r="0.22"/><circle cx="68.75" cy="32.84" r="0.22"/><circle cx="76.25" cy="32.84" r="0.22"/><circle cx="86.25" cy="32.84" r="0.22"/><circle cx="88.75" cy="32.84" r="0.22"/><circle cx="91.25" cy="32.84" r="0.22"/><circle cx="93.75" cy="32.84" r="0.22"/><circle cx="96.25" cy="32.84" r="0.22"/><circle cx="98.75" cy="32.84" r="0.22"/><circle cx="1.25" cy="34.68" r="0.22"/><circle cx="3.75" cy="34.68" r="0.22"/><circle cx="6.25" cy="34.68" r="0.22"/><circle cx="8.75" cy="34.68" r="0.22"/><circle cx="11.25" cy="34.68" r="0.22"/><circle cx="13.75" cy="34.68" r="0.22"/><circle cx="21.25" cy="34.68" r="0.22"/><circle cx="23.75" cy="34.68" r="0.22"/><circle cx="28.75" cy="34.68" r="0.22"/><circle cx="31.25" cy="34.68" r="0.22"/><circle cx="33.75" cy="34.68" r="0.22"/><circle cx="36.25" cy="34.68" r="0.22"/><circle cx="41.25" cy="34.68" r="0.22"/><circle cx="51.25" cy="34.68" r="0.22"/><circle cx="53.75" cy="34.68" r="0.22"/><circle cx="56.25" cy="34.68" r="0.22"/><circle cx="61.25" cy="34.68" r="0.22"/><circle cx="63.75" cy="34.68" r="0.22"/><circle cx="73.75" cy="34.68" r="0.22"/><circle cx="76.25" cy="34.68" r="0.22"/><circle cx="81.25" cy="34.68" r="0.22"/><circle cx="83.75" cy="34.68" r="0.22"/><circle cx="88.75" cy="34.68" r="0.22"/><circle cx="91.25" cy="34.68" r="0.22"/><circle cx="93.75" cy="34.68" r="0.22"/><circle cx="96.25" cy="34.68" r="0.22"/><circle cx="98.75" cy="34.68" r="0.22"/><circle cx="1.25" cy="36.52" r="0.22"/><circle cx="3.75" cy="36.52" r="0.22"/><circle cx="6.25" cy="36.52" r="0.22"/><circle cx="8.75" cy="36.52" r="0.22"/><circle cx="11.25" cy="36.52" r="0.22"/><circle cx="18.75" cy="36.52" r="0.22"/><circle cx="31.25" cy="36.52" r="0.22"/><circle cx="33.75" cy="36.52" r="0.22"/><circle cx="41.25" cy="36.52" r="0.22"/><circle cx="46.25" cy="36.52" r="0.22"/><circle cx="48.75" cy="36.52" r="0.22"/><circle cx="53.75" cy="36.52" r="0.22"/><circle cx="68.75" cy="36.52" r="0.22"/><circle cx="71.25" cy="36.52" r="0.22"/><circle cx="91.25" cy="36.52" r="0.22"/><circle cx="93.75" cy="36.52" r="0.22"/><circle cx="96.25" cy="36.52" r="0.22"/><circle cx="98.75" cy="36.52" r="0.22"/><circle cx="1.25" cy="38.36" r="0.22"/><circle cx="3.75" cy="38.36" r="0.22"/><circle cx="6.25" cy="38.36" r="0.22"/><circle cx="8.75" cy="38.36" r="0.22"/><circle cx="16.25" cy="38.36" r="0.22"/><circle cx="18.75" cy="38.36" r="0.22"/><circle cx="23.75" cy="38.36" r="0.22"/><circle cx="26.25" cy="38.36" r="0.22"/><circle cx="28.75" cy="38.36" r="0.22"/><circle cx="38.75" cy="38.36" r="0.22"/><circle cx="41.25" cy="38.36" r="0.22"/><circle cx="53.75" cy="38.36" r="0.22"/><circle cx="58.75" cy="38.36" r="0.22"/><circle cx="61.25" cy="38.36" r="0.22"/><circle cx="63.75" cy="38.36" r="0.22"/><circle cx="66.25" cy="38.36" r="0.22"/><circle cx="76.25" cy="38.36" r="0.22"/><circle cx="78.75" cy="38.36" r="0.22"/><circle cx="81.25" cy="38.36" r="0.22"/><circle cx="83.75" cy="38.36" r="0.22"/><circle cx="86.25" cy="38.36" r="0.22"/><circle cx="88.75" cy="38.36" r="0.22"/><circle cx="93.75" cy="38.36" r="0.22"/><circle cx="96.25" cy="38.36" r="0.22"/><circle cx="98.75" cy="38.36" r="0.22"/><circle cx="1.25" cy="40.2" r="0.22"/><circle cx="3.75" cy="40.2" r="0.22"/><circle cx="6.25" cy="40.2" r="0.22"/><circle cx="13.75" cy="40.2" r="0.22"/><circle cx="26.25" cy="40.2" r="0.22"/><circle cx="33.75" cy="40.2" r="0.22"/><circle cx="36.25" cy="40.2" r="0.22"/><circle cx="46.25" cy="40.2" r="0.22"/><circle cx="48.75" cy="40.2" r="0.22"/><circle cx="51.25" cy="40.2" r="0.22"/><circle cx="53.75" cy="40.2" r="0.22"/><circle cx="61.25" cy="40.2" r="0.22"/><circle cx="63.75" cy="40.2" r="0.22"/><circle cx="71.25" cy="40.2" r="0.22"/><circle cx="73.75" cy="40.2" r="0.22"/><circle cx="78.75" cy="40.2" r="0.22"/><circle cx="81.25" cy="40.2" r="0.22"/><circle cx="83.75" cy="40.2" r="0.22"/><circle cx="86.25" cy="40.2" r="0.22"/><circle cx="96.25" cy="40.2" r="0.22"/><circle cx="98.75" cy="40.2" r="0.22"/><circle cx="1.25" cy="42.04" r="0.22"/><circle cx="3.75" cy="42.04" r="0.22"/><circle cx="11.25" cy="42.04" r="0.22"/><circle cx="13.75" cy="42.04" r="0.22"/><circle cx="18.75" cy="42.04" r="0.22"/><circle cx="21.25" cy="42.04" r="0.22"/><circle cx="23.75" cy="42.04" r="0.22"/><circle cx="26.25" cy="42.04" r="0.22"/><circle cx="31.25" cy="42.04" r="0.22"/><circle cx="41.25" cy="42.04" r="0.22"/><circle cx="43.75" cy="42.04" r="0.22"/><circle cx="48.75" cy="42.04" r="0.22"/><circle cx="51.25" cy="42.04" r="0.22"/><circle cx="58.75" cy="42.04" r="0.22"/><circle cx="68.75" cy="42.04" r="0.22"/><circle cx="81.25" cy="42.04" r="0.22"/><circle cx="83.75" cy="42.04" r="0.22"/><circle cx="91.25" cy="42.04" r="0.22"/><circle cx="93.75" cy="42.04" r="0.22"/><circle cx="98.75" cy="42.04" r="0.22"/><circle cx="1.25" cy="43.88" r="0.22"/><circle cx="8.75" cy="43.88" r="0.22"/><circle cx="21.25" cy="43.88" r="0.22"/><circle cx="23.75" cy="43.88" r="0.22"/><circle cx="31.25" cy="43.88" r="0.22"/><circle cx="36.25" cy="43.88" r="0.22"/><circle cx="38.75" cy="43.88" r="0.22"/><circle cx="56.25" cy="43.88" r="0.22"/><circle cx="58.75" cy="43.88" r="0.22"/><circle cx="63.75" cy="43.88" r="0.22"/><circle cx="66.25" cy="43.88" r="0.22"/><circle cx="68.75" cy="43.88" r="0.22"/><circle cx="73.75" cy="43.88" r="0.22"/><circle cx="76.25" cy="43.88" r="0.22"/><circle cx="78.75" cy="43.88" r="0.22"/><circle cx="88.75" cy="43.88" r="0.22"/><circle cx="1.25" cy="45.72" r="0.22"/><circle cx="6.25" cy="45.72" r="0.22"/><circle cx="8.75" cy="45.72" r="0.22"/><circle cx="13.75" cy="45.72" r="0.22"/><circle cx="16.25" cy="45.72" r="0.22"/><circle cx="18.75" cy="45.72" r="0.22"/><circle cx="28.75" cy="45.72" r="0.22"/><circle cx="31.25" cy="45.72" r="0.22"/><circle cx="43.75" cy="45.72" r="0.22"/><circle cx="46.25" cy="45.72" r="0.22"/><circle cx="48.75" cy="45.72" r="0.22"/><circle cx="51.25" cy="45.72" r="0.22"/><circle cx="53.75" cy="45.72" r="0.22"/><circle cx="66.25" cy="45.72" r="0.22"/><circle cx="76.25" cy="45.72" r="0.22"/><circle cx="83.75" cy="45.72" r="0.22"/><circle cx="86.25" cy="45.72" r="0.22"/><circle cx="88.75" cy="45.72" r="0.22"/><circle cx="93.75" cy="45.72" r="0.22"/><circle cx="96.25" cy="45.72" r="0.22"/><circle cx="98.75" cy="45.72" r="0.22"/><circle cx="16.25" cy="47.56" r="0.22"/><circle cx="23.75" cy="47.56" r="0.22"/><circle cx="26.25" cy="47.56" r="0.22"/><circle cx="36.25" cy="47.56" r="0.22"/><circle cx="38.75" cy="47.56" r="0.22"/><circle cx="41.25" cy="47.56" r="0.22"/><circle cx="46.25" cy="47.56" r="0.22"/><circle cx="48.75" cy="47.56" r="0.22"/><circle cx="51.25" cy="47.56" r="0.22"/><circle cx="58.75" cy="47.56" r="0.22"/><circle cx="61.25" cy="47.56" r="0.22"/><circle cx="63.75" cy="47.56" r="0.22"/><circle cx="66.25" cy="47.56" r="0.22"/><circle cx="71.25" cy="47.56" r="0.22"/><circle cx="73.75" cy="47.56" r="0.22"/><circle cx="76.25" cy="47.56" r="0.22"/><circle cx="81.25" cy="47.56" r="0.22"/><circle cx="86.25" cy="47.56" r="0.22"/><circle cx="96.25" cy="47.56" r="0.22"/><circle cx="98.75" cy="47.56" r="0.22"/><circle cx="3.75" cy="49.4" r="0.22"/><circle cx="6.25" cy="49.4" r="0.22"/><circle cx="8.75" cy="49.4" r="0.22"/><circle cx="11.25" cy="49.4" r="0.22"/><circle cx="13.75" cy="49.4" r="0.22"/><circle cx="16.25" cy="49.4" r="0.22"/><circle cx="21.25" cy="49.4" r="0.22"/><circle cx="31.25" cy="49.4" r="0.22"/><circle cx="33.75" cy="49.4" r="0.22"/><circle cx="38.75" cy="49.4" r="0.22"/><circle cx="48.75" cy="49.4" r="0.22"/><circle cx="56.25" cy="49.4" r="0.22"/><circle cx="61.25" cy="49.4" r="0.22"/><circle cx="63.75" cy="49.4" r="0.22"/><circle cx="73.75" cy="49.4" r="0.22"/><circle cx="81.25" cy="49.4" r="0.22"/><circle cx="86.25" cy="49.4" r="0.22"/><circle cx="91.25" cy="49.4" r="0.22"/><circle cx="93.75" cy="49.4" r="0.22"/><circle cx="1.25" cy="51.24" r="0.22"/><circle cx="6.25" cy="51.24" r="0.22"/><circle cx="8.75" cy="51.24" r="0.22"/><circle cx="11.25" cy="51.24" r="0.22"/><circle cx="13.75" cy="51.24" r="0.22"/><circle cx="21.25" cy="51.24" r="0.22"/><circle cx="26.25" cy="51.24" r="0.22"/><circle cx="28.75" cy="51.24" r="0.22"/><circle cx="38.75" cy="51.24" r="0.22"/><circle cx="43.75" cy="51.24" r="0.22"/><circle cx="46.25" cy="51.24" r="0.22"/><circle cx="48.75" cy="51.24" r="0.22"/><circle cx="53.75" cy="51.24" r="0.22"/><circle cx="56.25" cy="51.24" r="0.22"/><circle cx="68.75" cy="51.24" r="0.22"/><circle cx="71.25" cy="51.24" r="0.22"/><circle cx="73.75" cy="51.24" r="0.22"/><circle cx="78.75" cy="51.24" r="0.22"/><circle cx="81.25" cy="51.24" r="0.22"/><circle cx="86.25" cy="51.24" r="0.22"/><circle cx="98.75" cy="51.24" r="0.22"/><circle cx="8.75" cy="53.08" r="0.22"/><circle cx="11.25" cy="53.08" r="0.22"/><circle cx="18.75" cy="53.08" r="0.22"/><circle cx="21.25" cy="53.08" r="0.22"/><circle cx="33.75" cy="53.08" r="0.22"/><circle cx="36.25" cy="53.08" r="0.22"/><circle cx="38.75" cy="53.08" r="0.22"/><circle cx="46.25" cy="53.08" r="0.22"/><circle cx="61.25" cy="53.08" r="0.22"/><circle cx="63.75" cy="53.08" r="0.22"/><circle cx="66.25" cy="53.08" r="0.22"/><circle cx="71.25" cy="53.08" r="0.22"/><circle cx="86.25" cy="53.08" r="0.22"/><circle cx="91.25" cy="53.08" r="0.22"/><circle cx="93.75" cy="53.08" r="0.22"/><circle cx="96.25" cy="53.08" r="0.22"/><circle cx="1.25" cy="54.92" r="0.22"/><circle cx="3.75" cy="54.92" r="0.22"/><circle cx="6.25" cy="54.92" r="0.22"/><circle cx="16.25" cy="54.92" r="0.22"/><circle cx="26.25" cy="54.92" r="0.22"/><circle cx="28.75" cy="54.92" r="0.22"/><circle cx="31.25" cy="54.92" r="0.22"/><circle cx="36.25" cy="54.92" r="0.22"/><circle cx="43.75" cy="54.92" r="0.22"/><circle cx="46.25" cy="54.92" r="0.22"/><circle cx="51.25" cy="54.92" r="0.22"/><circle cx="53.75" cy="54.92" r="0.22"/><circle cx="56.25" cy="54.92" r="0.22"/><circle cx="58.75" cy="54.92" r="0.22"/><circle cx="63.75" cy="54.92" r="0.22"/><circle cx="71.25" cy="54.92" r="0.22"/><circle cx="76.25" cy="54.92" r="0.22"/><circle cx="78.75" cy="54.92" r="0.22"/><circle cx="81.25" cy="54.92" r="0.22"/><circle cx="83.75" cy="54.92" r="0.22"/><circle cx="86.25" cy="54.92" r="0.22"/><circle cx="93.75" cy="54.92" r="0.22"/><circle cx="3.75" cy="56.76" r="0.22"/><circle cx="11.25" cy="56.76" r="0.22"/><circle cx="13.75" cy="56.76" r="0.22"/><circle cx="16.25" cy="56.76" r="0.22"/><circle cx="21.25" cy="56.76" r="0.22"/><circle cx="23.75" cy="56.76" r="0.22"/><circle cx="28.75" cy="56.76" r="0.22"/><circle cx="36.25" cy="56.76" r="0.22"/><circle cx="41.25" cy="56.76" r="0.22"/><circle cx="53.75" cy="56.76" r="0.22"/><circle cx="56.25" cy="56.76" r="0.22"/><circle cx="63.75" cy="56.76" r="0.22"/><circle cx="68.75" cy="56.76" r="0.22"/><circle cx="71.25" cy="56.76" r="0.22"/><circle cx="78.75" cy="56.76" r="0.22"/><circle cx="81.25" cy="56.76" r="0.22"/><circle cx="83.75" cy="56.76" r="0.22"/><circle cx="91.25" cy="56.76" r="0.22"/><circle cx="93.75" cy="56.76" r="0.22"/><circle cx="98.75" cy="56.76" r="0.22"/><circle cx="3.75" cy="58.6" r="0.22"/><circle cx="8.75" cy="58.6" r="0.22"/><circle cx="13.75" cy="58.6" r="0.22"/><circle cx="28.75" cy="58.6" r="0.22"/><circle cx="33.75" cy="58.6" r="0.22"/><circle cx="36.25" cy="58.6" r="0.22"/><circle cx="41.25" cy="58.6" r="0.22"/><circle cx="46.25" cy="58.6" r="0.22"/><circle cx="48.75" cy="58.6" r="0.22"/><circle cx="51.25" cy="58.6" r="0.22"/><circle cx="61.25" cy="58.6" r="0.22"/><circle cx="63.75" cy="58.6" r="0.22"/><circle cx="76.25" cy="58.6" r="0.22"/><circle cx="81.25" cy="58.6" r="0.22"/><circle cx="88.75" cy="58.6" r="0.22"/><circle cx="98.75" cy="58.6" r="0.22"/><circle cx="3.75" cy="60.44" r="0.22"/><circle cx="8.75" cy="60.44" r="0.22"/><circle cx="13.75" cy="60.44" r="0.22"/><circle cx="18.75" cy="60.44" r="0.22"/><circle cx="21.25" cy="60.44" r="0.22"/><circle cx="23.75" cy="60.44" r="0.22"/><circle cx="26.25" cy="60.44" r="0.22"/><circle cx="28.75" cy="60.44" r="0.22"/><circle cx="41.25" cy="60.44" r="0.22"/><circle cx="48.75" cy="60.44" r="0.22"/><circle cx="56.25" cy="60.44" r="0.22"/><circle cx="58.75" cy="60.44" r="0.22"/><circle cx="68.75" cy="60.44" r="0.22"/><circle cx="71.25" cy="60.44" r="0.22"/><circle cx="73.75" cy="60.44" r="0.22"/><circle cx="76.25" cy="60.44" r="0.22"/><circle cx="81.25" cy="60.44" r="0.22"/><circle cx="86.25" cy="60.44" r="0.22"/><circle cx="88.75" cy="60.44" r="0.22"/><circle cx="93.75" cy="60.44" r="0.22"/><circle cx="96.25" cy="60.44" r="0.22"/><circle cx="98.75" cy="60.44" r="0.22"/><circle cx="3.75" cy="62.28" r="0.22"/><circle cx="8.75" cy="62.28" r="0.22"/><circle cx="13.75" cy="62.28" r="0.22"/><circle cx="21.25" cy="62.28" r="0.22"/><circle cx="23.75" cy="62.28" r="0.22"/><circle cx="26.25" cy="62.28" r="0.22"/><circle cx="33.75" cy="62.28" r="0.22"/><circle cx="36.25" cy="62.28" r="0.22"/><circle cx="38.75" cy="62.28" r="0.22"/><circle cx="41.25" cy="62.28" r="0.22"/><circle cx="46.25" cy="62.28" r="0.22"/><circle cx="48.75" cy="62.28" r="0.22"/><circle cx="53.75" cy="62.28" r="0.22"/><circle cx="63.75" cy="62.28" r="0.22"/><circle cx="66.25" cy="62.28" r="0.22"/><circle cx="71.25" cy="62.28" r="0.22"/><circle cx="73.75" cy="62.28" r="0.22"/><circle cx="81.25" cy="62.28" r="0.22"/><circle cx="96.25" cy="62.28" r="0.22"/><circle cx="1.25" cy="64.12" r="0.22"/><circle cx="3.75" cy="64.12" r="0.22"/><circle cx="8.75" cy="64.12" r="0.22"/><circle cx="13.75" cy="64.12" r="0.22"/><circle cx="18.75" cy="64.12" r="0.22"/><circle cx="23.75" cy="64.12" r="0.22"/><circle cx="31.25" cy="64.12" r="0.22"/><circle cx="36.25" cy="64.12" r="0.22"/><circle cx="38.75" cy="64.12" r="0.22"/><circle cx="53.75" cy="64.12" r="0.22"/><circle cx="58.75" cy="64.12" r="0.22"/><circle cx="61.25" cy="64.12" r="0.22"/><circle cx="78.75" cy="64.12" r="0.22"/><circle cx="81.25" cy="64.12" r="0.22"/><circle cx="86.25" cy="64.12" r="0.22"/><circle cx="88.75" cy="64.12" r="0.22"/><circle cx="91.25" cy="64.12" r="0.22"/><circle cx="93.75" cy="64.12" r="0.22"/><circle cx="96.25" cy="64.12" r="0.22"/><circle cx="8.75" cy="65.96" r="0.22"/><circle cx="13.75" cy="65.96" r="0.22"/><circle cx="18.75" cy="65.96" r="0.22"/><circle cx="23.75" cy="65.96" r="0.22"/><circle cx="28.75" cy="65.96" r="0.22"/><circle cx="31.25" cy="65.96" r="0.22"/><circle cx="43.75" cy="65.96" r="0.22"/><circle cx="46.25" cy="65.96" r="0.22"/><circle cx="48.75" cy="65.96" r="0.22"/><circle cx="51.25" cy="65.96" r="0.22"/><circle cx="53.75" cy="65.96" r="0.22"/><circle cx="66.25" cy="65.96" r="0.22"/><circle cx="68.75" cy="65.96" r="0.22"/><circle cx="71.25" cy="65.96" r="0.22"/><circle cx="73.75" cy="65.96" r="0.22"/><circle cx="76.25" cy="65.96" r="0.22"/><circle cx="88.75" cy="65.96" r="0.22"/><circle cx="91.25" cy="65.96" r="0.22"/><circle cx="93.75" cy="65.96" r="0.22"/><circle cx="1.25" cy="67.8" r="0.22"/><circle cx="3.75" cy="67.8" r="0.22"/><circle cx="6.25" cy="67.8" r="0.22"/><circle cx="8.75" cy="67.8" r="0.22"/><circle cx="13.75" cy="67.8" r="0.22"/><circle cx="18.75" cy="67.8" r="0.22"/><circle cx="23.75" cy="67.8" r="0.22"/><circle cx="36.25" cy="67.8" r="0.22"/><circle cx="38.75" cy="67.8" r="0.22"/><circle cx="41.25" cy="67.8" r="0.22"/><circle cx="46.25" cy="67.8" r="0.22"/><circle cx="48.75" cy="67.8" r="0.22"/><circle cx="51.25" cy="67.8" r="0.22"/><circle cx="58.75" cy="67.8" r="0.22"/><circle cx="61.25" cy="67.8" r="0.22"/><circle cx="63.75" cy="67.8" r="0.22"/><circle cx="68.75" cy="67.8" r="0.22"/><circle cx="71.25" cy="67.8" r="0.22"/><circle cx="73.75" cy="67.8" r="0.22"/><circle cx="81.25" cy="67.8" r="0.22"/><circle cx="83.75" cy="67.8" r="0.22"/><circle cx="86.25" cy="67.8" r="0.22"/><circle cx="91.25" cy="67.8" r="0.22"/><circle cx="98.75" cy="67.8" r="0.22"/><circle cx="1.25" cy="69.64" r="0.22"/><circle cx="3.75" cy="69.64" r="0.22"/><circle cx="6.25" cy="69.64" r="0.22"/><circle cx="13.75" cy="69.64" r="0.22"/><circle cx="18.75" cy="69.64" r="0.22"/><circle cx="23.75" cy="69.64" r="0.22"/><circle cx="28.75" cy="69.64" r="0.22"/><circle cx="31.25" cy="69.64" r="0.22"/><circle cx="33.75" cy="69.64" r="0.22"/><circle cx="38.75" cy="69.64" r="0.22"/><circle cx="48.75" cy="69.64" r="0.22"/><circle cx="56.25" cy="69.64" r="0.22"/><circle cx="61.25" cy="69.64" r="0.22"/><circle cx="71.25" cy="69.64" r="0.22"/><circle cx="78.75" cy="69.64" r="0.22"/><circle cx="83.75" cy="69.64" r="0.22"/><circle cx="91.25" cy="69.64" r="0.22"/><circle cx="96.25" cy="69.64" r="0.22"/><circle cx="3.75" cy="71.48" r="0.22"/><circle cx="11.25" cy="71.48" r="0.22"/><circle cx="13.75" cy="71.48" r="0.22"/><circle cx="18.75" cy="71.48" r="0.22"/><circle cx="23.75" cy="71.48" r="0.22"/><circle cx="31.25" cy="71.48" r="0.22"/><circle cx="38.75" cy="71.48" r="0.22"/><circle cx="43.75" cy="71.48" r="0.22"/><circle cx="46.25" cy="71.48" r="0.22"/><circle cx="48.75" cy="71.48" r="0.22"/><circle cx="53.75" cy="71.48" r="0.22"/><circle cx="56.25" cy="71.48" r="0.22"/><circle cx="61.25" cy="71.48" r="0.22"/><circle cx="66.25" cy="71.48" r="0.22"/><circle cx="68.75" cy="71.48" r="0.22"/><circle cx="71.25" cy="71.48" r="0.22"/><circle cx="76.25" cy="71.48" r="0.22"/><circle cx="78.75" cy="71.48" r="0.22"/><circle cx="83.75" cy="71.48" r="0.22"/><circle cx="88.75" cy="71.48" r="0.22"/><circle cx="91.25" cy="71.48" r="0.22"/><circle cx="96.25" cy="71.48" r="0.22"/><circle cx="1.25" cy="73.32" r="0.22"/><circle cx="3.75" cy="73.32" r="0.22"/><circle cx="8.75" cy="73.32" r="0.22"/><circle cx="18.75" cy="73.32" r="0.22"/><circle cx="23.75" cy="73.32" r="0.22"/><circle cx="28.75" cy="73.32" r="0.22"/><circle cx="31.25" cy="73.32" r="0.22"/><circle cx="36.25" cy="73.32" r="0.22"/><circle cx="38.75" cy="73.32" r="0.22"/><circle cx="46.25" cy="73.32" r="0.22"/><circle cx="61.25" cy="73.32" r="0.22"/><circle cx="68.75" cy="73.32" r="0.22"/><circle cx="83.75" cy="73.32" r="0.22"/><circle cx="96.25" cy="73.32" r="0.22"/><circle cx="8.75" cy="75.16" r="0.22"/><circle cx="13.75" cy="75.16" r="0.22"/><circle cx="16.25" cy="75.16" r="0.22"/><circle cx="18.75" cy="75.16" r="0.22"/><circle cx="23.75" cy="75.16" r="0.22"/><circle cx="43.75" cy="75.16" r="0.22"/><circle cx="46.25" cy="75.16" r="0.22"/><circle cx="51.25" cy="75.16" r="0.22"/><circle cx="53.75" cy="75.16" r="0.22"/><circle cx="56.25" cy="75.16" r="0.22"/><circle cx="58.75" cy="75.16" r="0.22"/><circle cx="61.25" cy="75.16" r="0.22"/><circle cx="66.25" cy="75.16" r="0.22"/><circle cx="68.75" cy="75.16" r="0.22"/><circle cx="73.75" cy="75.16" r="0.22"/><circle cx="76.25" cy="75.16" r="0.22"/><circle cx="78.75" cy="75.16" r="0.22"/><circle cx="81.25" cy="75.16" r="0.22"/><circle cx="83.75" cy="75.16" r="0.22"/><circle cx="88.75" cy="75.16" r="0.22"/><circle cx="91.25" cy="75.16" r="0.22"/><circle cx="93.75" cy="75.16" r="0.22"/><circle cx="96.25" cy="75.16" r="0.22"/><circle cx="1.25" cy="77" r="0.22"/><circle cx="3.75" cy="77" r="0.22"/><circle cx="6.25" cy="77" r="0.22"/><circle cx="8.75" cy="77" r="0.22"/><circle cx="16.25" cy="77" r="0.22"/><circle cx="23.75" cy="77" r="0.22"/><circle cx="28.75" cy="77" r="0.22"/><circle cx="31.25" cy="77" r="0.22"/><circle cx="33.75" cy="77" r="0.22"/><circle cx="36.25" cy="77" r="0.22"/><circle cx="38.75" cy="77" r="0.22"/><circle cx="41.25" cy="77" r="0.22"/><circle cx="53.75" cy="77" r="0.22"/><circle cx="56.25" cy="77" r="0.22"/><circle cx="58.75" cy="77" r="0.22"/><circle cx="76.25" cy="77" r="0.22"/><circle cx="78.75" cy="77" r="0.22"/><circle cx="81.25" cy="77" r="0.22"/><circle cx="91.25" cy="77" r="0.22"/><circle cx="93.75" cy="77" r="0.22"/><circle cx="3.75" cy="78.84" r="0.22"/><circle cx="6.25" cy="78.84" r="0.22"/><circle cx="13.75" cy="78.84" r="0.22"/><circle cx="16.25" cy="78.84" r="0.22"/><circle cx="21.25" cy="78.84" r="0.22"/><circle cx="23.75" cy="78.84" r="0.22"/><circle cx="31.25" cy="78.84" r="0.22"/><circle cx="33.75" cy="78.84" r="0.22"/><circle cx="36.25" cy="78.84" r="0.22"/><circle cx="38.75" cy="78.84" r="0.22"/><circle cx="46.25" cy="78.84" r="0.22"/><circle cx="48.75" cy="78.84" r="0.22"/><circle cx="51.25" cy="78.84" r="0.22"/><circle cx="56.25" cy="78.84" r="0.22"/><circle cx="63.75" cy="78.84" r="0.22"/><circle cx="66.25" cy="78.84" r="0.22"/><circle cx="68.75" cy="78.84" r="0.22"/><circle cx="71.25" cy="78.84" r="0.22"/><circle cx="73.75" cy="78.84" r="0.22"/><circle cx="78.75" cy="78.84" r="0.22"/><circle cx="86.25" cy="78.84" r="0.22"/><circle cx="88.75" cy="78.84" r="0.22"/><circle cx="98.75" cy="78.84" r="0.22"/><circle cx="11.25" cy="80.68" r="0.22"/><circle cx="28.75" cy="80.68" r="0.22"/><circle cx="33.75" cy="80.68" r="0.22"/><circle cx="36.25" cy="80.68" r="0.22"/><circle cx="43.75" cy="80.68" r="0.22"/><circle cx="48.75" cy="80.68" r="0.22"/><circle cx="56.25" cy="80.68" r="0.22"/><circle cx="61.25" cy="80.68" r="0.22"/><circle cx="66.25" cy="80.68" r="0.22"/><circle cx="68.75" cy="80.68" r="0.22"/><circle cx="71.25" cy="80.68" r="0.22"/><circle cx="78.75" cy="80.68" r="0.22"/><circle cx="83.75" cy="80.68" r="0.22"/><circle cx="93.75" cy="80.68" r="0.22"/><circle cx="96.25" cy="80.68" r="0.22"/><circle cx="98.75" cy="80.68" r="0.22"/><circle cx="3.75" cy="82.52" r="0.22"/><circle cx="6.25" cy="82.52" r="0.22"/><circle cx="8.75" cy="82.52" r="0.22"/><circle cx="11.25" cy="82.52" r="0.22"/><circle cx="16.25" cy="82.52" r="0.22"/><circle cx="18.75" cy="82.52" r="0.22"/><circle cx="21.25" cy="82.52" r="0.22"/><circle cx="23.75" cy="82.52" r="0.22"/><circle cx="26.25" cy="82.52" r="0.22"/><circle cx="28.75" cy="82.52" r="0.22"/><circle cx="41.25" cy="82.52" r="0.22"/><circle cx="43.75" cy="82.52" r="0.22"/><circle cx="48.75" cy="82.52" r="0.22"/><circle cx="53.75" cy="82.52" r="0.22"/><circle cx="56.25" cy="82.52" r="0.22"/><circle cx="61.25" cy="82.52" r="0.22"/><circle cx="68.75" cy="82.52" r="0.22"/><circle cx="76.25" cy="82.52" r="0.22"/><circle cx="78.75" cy="82.52" r="0.22"/><circle cx="83.75" cy="82.52" r="0.22"/><circle cx="88.75" cy="82.52" r="0.22"/><circle cx="91.25" cy="82.52" r="0.22"/><circle cx="96.25" cy="82.52" r="0.22"/><circle cx="1.25" cy="84.36" r="0.22"/><circle cx="6.25" cy="84.36" r="0.22"/><circle cx="8.75" cy="84.36" r="0.22"/><circle cx="18.75" cy="84.36" r="0.22"/><circle cx="21.25" cy="84.36" r="0.22"/><circle cx="23.75" cy="84.36" r="0.22"/><circle cx="26.25" cy="84.36" r="0.22"/><circle cx="33.75" cy="84.36" r="0.22"/><circle cx="36.25" cy="84.36" r="0.22"/><circle cx="38.75" cy="84.36" r="0.22"/><circle cx="48.75" cy="84.36" r="0.22"/><circle cx="61.25" cy="84.36" r="0.22"/><circle cx="66.25" cy="84.36" r="0.22"/><circle cx="68.75" cy="84.36" r="0.22"/><circle cx="73.75" cy="84.36" r="0.22"/><circle cx="83.75" cy="84.36" r="0.22"/><circle cx="96.25" cy="84.36" r="0.22"/><circle cx="1.25" cy="86.2" r="0.22"/><circle cx="13.75" cy="86.2" r="0.22"/><circle cx="16.25" cy="86.2" r="0.22"/><circle cx="21.25" cy="86.2" r="0.22"/><circle cx="23.75" cy="86.2" r="0.22"/><circle cx="31.25" cy="86.2" r="0.22"/><circle cx="36.25" cy="86.2" r="0.22"/><circle cx="43.75" cy="86.2" r="0.22"/><circle cx="46.25" cy="86.2" r="0.22"/><circle cx="48.75" cy="86.2" r="0.22"/><circle cx="53.75" cy="86.2" r="0.22"/><circle cx="56.25" cy="86.2" r="0.22"/><circle cx="58.75" cy="86.2" r="0.22"/><circle cx="61.25" cy="86.2" r="0.22"/><circle cx="73.75" cy="86.2" r="0.22"/><circle cx="78.75" cy="86.2" r="0.22"/><circle cx="81.25" cy="86.2" r="0.22"/><circle cx="83.75" cy="86.2" r="0.22"/><circle cx="88.75" cy="86.2" r="0.22"/><circle cx="91.25" cy="86.2" r="0.22"/><circle cx="93.75" cy="86.2" r="0.22"/><circle cx="96.25" cy="86.2" r="0.22"/><circle cx="1.25" cy="88.04" r="0.22"/><circle cx="6.25" cy="88.04" r="0.22"/><circle cx="8.75" cy="88.04" r="0.22"/><circle cx="11.25" cy="88.04" r="0.22"/><circle cx="28.75" cy="88.04" r="0.22"/><circle cx="31.25" cy="88.04" r="0.22"/><circle cx="36.25" cy="88.04" r="0.22"/><circle cx="41.25" cy="88.04" r="0.22"/><circle cx="46.25" cy="88.04" r="0.22"/><circle cx="56.25" cy="88.04" r="0.22"/><circle cx="58.75" cy="88.04" r="0.22"/><circle cx="66.25" cy="88.04" r="0.22"/><circle cx="68.75" cy="88.04" r="0.22"/><circle cx="71.25" cy="88.04" r="0.22"/><circle cx="73.75" cy="88.04" r="0.22"/><circle cx="81.25" cy="88.04" r="0.22"/><circle cx="91.25" cy="88.04" r="0.22"/><circle cx="93.75" cy="88.04" r="0.22"/><circle cx="1.25" cy="89.88" r="0.22"/><circle cx="8.75" cy="89.88" r="0.22"/><circle cx="16.25" cy="89.88" r="0.22"/><circle cx="18.75" cy="89.88" r="0.22"/><circle cx="21.25" cy="89.88" r="0.22"/><circle cx="23.75" cy="89.88" r="0.22"/><circle cx="26.25" cy="89.88" r="0.22"/><circle cx="36.25" cy="89.88" r="0.22"/><circle cx="41.25" cy="89.88" r="0.22"/><circle cx="46.25" cy="89.88" r="0.22"/><circle cx="51.25" cy="89.88" r="0.22"/><circle cx="53.75" cy="89.88" r="0.22"/><circle cx="63.75" cy="89.88" r="0.22"/><circle cx="68.75" cy="89.88" r="0.22"/><circle cx="71.25" cy="89.88" r="0.22"/><circle cx="78.75" cy="89.88" r="0.22"/><circle cx="81.25" cy="89.88" r="0.22"/><circle cx="86.25" cy="89.88" r="0.22"/><circle cx="88.75" cy="89.88" r="0.22"/><circle cx="98.75" cy="89.88" r="0.22"/><circle cx="6.25" cy="91.72" r="0.22"/><circle cx="8.75" cy="91.72" r="0.22"/><circle cx="13.75" cy="91.72" r="0.22"/><circle cx="18.75" cy="91.72" r="0.22"/><circle cx="21.25" cy="91.72" r="0.22"/><circle cx="23.75" cy="91.72" r="0.22"/><circle cx="31.25" cy="91.72" r="0.22"/><circle cx="33.75" cy="91.72" r="0.22"/><circle cx="36.25" cy="91.72" r="0.22"/><circle cx="41.25" cy="91.72" r="0.22"/><circle cx="46.25" cy="91.72" r="0.22"/><circle cx="58.75" cy="91.72" r="0.22"/><circle cx="61.25" cy="91.72" r="0.22"/><circle cx="63.75" cy="91.72" r="0.22"/><circle cx="76.25" cy="91.72" r="0.22"/><circle cx="93.75" cy="91.72" r="0.22"/><circle cx="96.25" cy="91.72" r="0.22"/><circle cx="1.25" cy="93.56" r="0.22"/><circle cx="3.75" cy="93.56" r="0.22"/><circle cx="13.75" cy="93.56" r="0.22"/><circle cx="21.25" cy="93.56" r="0.22"/><circle cx="28.75" cy="93.56" r="0.22"/><circle cx="33.75" cy="93.56" r="0.22"/><circle cx="41.25" cy="93.56" r="0.22"/><circle cx="46.25" cy="93.56" r="0.22"/><circle cx="51.25" cy="93.56" r="0.22"/><circle cx="53.75" cy="93.56" r="0.22"/><circle cx="56.25" cy="93.56" r="0.22"/><circle cx="61.25" cy="93.56" r="0.22"/><circle cx="68.75" cy="93.56" r="0.22"/><circle cx="71.25" cy="93.56" r="0.22"/><circle cx="73.75" cy="93.56" r="0.22"/><circle cx="76.25" cy="93.56" r="0.22"/><circle cx="81.25" cy="93.56" r="0.22"/><circle cx="83.75" cy="93.56" r="0.22"/><circle cx="86.25" cy="93.56" r="0.22"/><circle cx="88.75" cy="93.56" r="0.22"/><circle cx="91.25" cy="93.56" r="0.22"/><circle cx="8.75" cy="95.4" r="0.22"/><circle cx="11.25" cy="95.4" r="0.22"/><circle cx="13.75" cy="95.4" r="0.22"/><circle cx="18.75" cy="95.4" r="0.22"/><circle cx="21.25" cy="95.4" r="0.22"/><circle cx="26.25" cy="95.4" r="0.22"/><circle cx="28.75" cy="95.4" r="0.22"/><circle cx="33.75" cy="95.4" r="0.22"/><circle cx="38.75" cy="95.4" r="0.22"/><circle cx="41.25" cy="95.4" r="0.22"/><circle cx="46.25" cy="95.4" r="0.22"/><circle cx="53.75" cy="95.4" r="0.22"/><circle cx="61.25" cy="95.4" r="0.22"/><circle cx="66.25" cy="95.4" r="0.22"/><circle cx="71.25" cy="95.4" r="0.22"/><circle cx="73.75" cy="95.4" r="0.22"/><circle cx="83.75" cy="95.4" r="0.22"/><circle cx="86.25" cy="95.4" r="0.22"/><circle cx="88.75" cy="95.4" r="0.22"/><circle cx="96.25" cy="95.4" r="0.22"/><circle cx="98.75" cy="95.4" r="0.22"/><circle cx="3.75" cy="97.24" r="0.22"/><circle cx="6.25" cy="97.24" r="0.22"/><circle cx="11.25" cy="97.24" r="0.22"/><circle cx="33.75" cy="97.24" r="0.22"/><circle cx="46.25" cy="97.24" r="0.22"/><circle cx="51.25" cy="97.24" r="0.22"/><circle cx="53.75" cy="97.24" r="0.22"/><circle cx="58.75" cy="97.24" r="0.22"/><circle cx="61.25" cy="97.24" r="0.22"/><circle cx="66.25" cy="97.24" r="0.22"/><circle cx="78.75" cy="97.24" r="0.22"/><circle cx="81.25" cy="97.24" r="0.22"/><circle cx="86.25" cy="97.24" r="0.22"/><circle cx="93.75" cy="97.24" r="0.22"/><circle cx="1.25" cy="99.08" r="0.22"/><circle cx="11.25" cy="99.08" r="0.22"/><circle cx="16.25" cy="99.08" r="0.22"/><circle cx="18.75" cy="99.08" r="0.22"/><circle cx="21.25" cy="99.08" r="0.22"/><circle cx="23.75" cy="99.08" r="0.22"/><circle cx="26.25" cy="99.08" r="0.22"/><circle cx="28.75" cy="99.08" r="0.22"/><circle cx="31.25" cy="99.08" r="0.22"/><circle cx="33.75" cy="99.08" r="0.22"/><circle cx="38.75" cy="99.08" r="0.22"/><circle cx="41.25" cy="99.08" r="0.22"/><circle cx="43.75" cy="99.08" r="0.22"/><circle cx="46.25" cy="99.08" r="0.22"/><circle cx="66.25" cy="99.08" r="0.22"/><circle cx="71.25" cy="99.08" r="0.22"/><circle cx="73.75" cy="99.08" r="0.22"/><circle cx="76.25" cy="99.08" r="0.22"/><circle cx="86.25" cy="99.08" r="0.22"/><circle cx="91.25" cy="99.08" r="0.22"/><circle cx="93.75" cy="99.08" r="0.22"/><circle cx="98.75" cy="99.08" r="0.22"/></g>
  <g fill="#755CFE" opacity="0.85"><circle cx="51.25" cy="8.92" r="0.59"/><circle cx="48.75" cy="10.76" r="0.59"/><circle cx="51.25" cy="10.76" r="0.59"/><circle cx="53.75" cy="10.76" r="0.59"/><circle cx="46.25" cy="12.6" r="0.59"/><circle cx="48.75" cy="12.6" r="0.59"/><circle cx="56.25" cy="12.6" r="0.59"/><circle cx="43.75" cy="14.44" r="0.59"/><circle cx="46.25" cy="14.44" r="0.59"/><circle cx="51.25" cy="14.44" r="0.59"/><circle cx="53.75" cy="14.44" r="0.59"/><circle cx="56.25" cy="14.44" r="0.59"/><circle cx="58.75" cy="14.44" r="0.59"/><circle cx="41.25" cy="16.28" r="0.59"/><circle cx="43.75" cy="16.28" r="0.59"/><circle cx="51.25" cy="16.28" r="0.59"/><circle cx="61.25" cy="16.28" r="0.59"/><circle cx="38.75" cy="18.12" r="0.59"/><circle cx="41.25" cy="18.12" r="0.59"/><circle cx="46.25" cy="18.12" r="0.59"/><circle cx="48.75" cy="18.12" r="0.59"/><circle cx="51.25" cy="18.12" r="0.59"/><circle cx="53.75" cy="18.12" r="0.59"/><circle cx="58.75" cy="18.12" r="0.59"/><circle cx="61.25" cy="18.12" r="0.59"/><circle cx="63.75" cy="18.12" r="0.59"/><circle cx="36.25" cy="19.96" r="0.59"/><circle cx="38.75" cy="19.96" r="0.59"/><circle cx="46.25" cy="19.96" r="0.59"/><circle cx="58.75" cy="19.96" r="0.59"/><circle cx="66.25" cy="19.96" r="0.59"/><circle cx="33.75" cy="21.8" r="0.59"/><circle cx="36.25" cy="21.8" r="0.59"/><circle cx="41.25" cy="21.8" r="0.59"/><circle cx="43.75" cy="21.8" r="0.59"/><circle cx="46.25" cy="21.8" r="0.59"/><circle cx="48.75" cy="21.8" r="0.59"/><circle cx="56.25" cy="21.8" r="0.59"/><circle cx="58.75" cy="21.8" r="0.59"/><circle cx="61.25" cy="21.8" r="0.59"/><circle cx="63.75" cy="21.8" r="0.59"/><circle cx="66.25" cy="21.8" r="0.59"/><circle cx="68.75" cy="21.8" r="0.59"/><circle cx="31.25" cy="23.64" r="0.59"/><circle cx="33.75" cy="23.64" r="0.59"/><circle cx="41.25" cy="23.64" r="0.59"/><circle cx="51.25" cy="23.64" r="0.59"/><circle cx="53.75" cy="23.64" r="0.59"/><circle cx="56.25" cy="23.64" r="0.59"/><circle cx="71.25" cy="23.64" r="0.59"/><circle cx="28.75" cy="25.48" r="0.59"/><circle cx="31.25" cy="25.48" r="0.59"/><circle cx="36.25" cy="25.48" r="0.59"/><circle cx="38.75" cy="25.48" r="0.59"/><circle cx="41.25" cy="25.48" r="0.59"/><circle cx="43.75" cy="25.48" r="0.59"/><circle cx="48.75" cy="25.48" r="0.59"/><circle cx="51.25" cy="25.48" r="0.59"/><circle cx="58.75" cy="25.48" r="0.59"/><circle cx="68.75" cy="25.48" r="0.59"/><circle cx="71.25" cy="25.48" r="0.59"/><circle cx="73.75" cy="25.48" r="0.59"/><circle cx="26.25" cy="27.32" r="0.59"/><circle cx="28.75" cy="27.32" r="0.59"/><circle cx="36.25" cy="27.32" r="0.59"/><circle cx="48.75" cy="27.32" r="0.59"/><circle cx="53.75" cy="27.32" r="0.59"/><circle cx="56.25" cy="27.32" r="0.59"/><circle cx="58.75" cy="27.32" r="0.59"/><circle cx="61.25" cy="27.32" r="0.59"/><circle cx="66.25" cy="27.32" r="0.59"/><circle cx="68.75" cy="27.32" r="0.59"/><circle cx="76.25" cy="27.32" r="0.59"/><circle cx="23.75" cy="29.16" r="0.59"/><circle cx="26.25" cy="29.16" r="0.59"/><circle cx="31.25" cy="29.16" r="0.59"/><circle cx="33.75" cy="29.16" r="0.59"/><circle cx="36.25" cy="29.16" r="0.59"/><circle cx="38.75" cy="29.16" r="0.59"/><circle cx="46.25" cy="29.16" r="0.59"/><circle cx="48.75" cy="29.16" r="0.59"/><circle cx="53.75" cy="29.16" r="0.59"/><circle cx="66.25" cy="29.16" r="0.59"/><circle cx="71.25" cy="29.16" r="0.59"/><circle cx="73.75" cy="29.16" r="0.59"/><circle cx="76.25" cy="29.16" r="0.59"/><circle cx="78.75" cy="29.16" r="0.59"/><circle cx="21.25" cy="31" r="0.59"/><circle cx="23.75" cy="31" r="0.59"/><circle cx="31.25" cy="31" r="0.59"/><circle cx="41.25" cy="31" r="0.59"/><circle cx="43.75" cy="31" r="0.59"/><circle cx="46.25" cy="31" r="0.59"/><circle cx="53.75" cy="31" r="0.59"/><circle cx="56.25" cy="31" r="0.59"/><circle cx="63.75" cy="31" r="0.59"/><circle cx="66.25" cy="31" r="0.59"/><circle cx="71.25" cy="31" r="0.59"/><circle cx="81.25" cy="31" r="0.59"/><circle cx="18.75" cy="32.84" r="0.59"/><circle cx="21.25" cy="32.84" r="0.59"/><circle cx="26.25" cy="32.84" r="0.59"/><circle cx="28.75" cy="32.84" r="0.59"/><circle cx="31.25" cy="32.84" r="0.59"/><circle cx="33.75" cy="32.84" r="0.59"/><circle cx="38.75" cy="32.84" r="0.59"/><circle cx="41.25" cy="32.84" r="0.59"/><circle cx="48.75" cy="32.84" r="0.59"/><circle cx="51.25" cy="32.84" r="0.59"/><circle cx="53.75" cy="32.84" r="0.59"/><circle cx="58.75" cy="32.84" r="0.59"/><circle cx="61.25" cy="32.84" r="0.59"/><circle cx="63.75" cy="32.84" r="0.59"/><circle cx="71.25" cy="32.84" r="0.59"/><circle cx="73.75" cy="32.84" r="0.59"/><circle cx="78.75" cy="32.84" r="0.59"/><circle cx="81.25" cy="32.84" r="0.59"/><circle cx="83.75" cy="32.84" r="0.59"/><circle cx="16.25" cy="34.68" r="0.59"/><circle cx="18.75" cy="34.68" r="0.59"/><circle cx="26.25" cy="34.68" r="0.59"/><circle cx="38.75" cy="34.68" r="0.59"/><circle cx="43.75" cy="34.68" r="0.59"/><circle cx="46.25" cy="34.68" r="0.59"/><circle cx="48.75" cy="34.68" r="0.59"/><circle cx="58.75" cy="34.68" r="0.59"/><circle cx="66.25" cy="34.68" r="0.59"/><circle cx="68.75" cy="34.68" r="0.59"/><circle cx="71.25" cy="34.68" r="0.59"/><circle cx="78.75" cy="34.68" r="0.59"/><circle cx="86.25" cy="34.68" r="0.59"/><circle cx="13.75" cy="36.52" r="0.59"/><circle cx="16.25" cy="36.52" r="0.59"/><circle cx="21.25" cy="36.52" r="0.59"/><circle cx="23.75" cy="36.52" r="0.59"/><circle cx="26.25" cy="36.52" r="0.59"/><circle cx="28.75" cy="36.52" r="0.59"/><circle cx="36.25" cy="36.52" r="0.59"/><circle cx="38.75" cy="36.52" r="0.59"/><circle cx="43.75" cy="36.52" r="0.59"/><circle cx="51.25" cy="36.52" r="0.59"/><circle cx="56.25" cy="36.52" r="0.59"/><circle cx="58.75" cy="36.52" r="0.59"/><circle cx="61.25" cy="36.52" r="0.59"/><circle cx="63.75" cy="36.52" r="0.59"/><circle cx="66.25" cy="36.52" r="0.59"/><circle cx="73.75" cy="36.52" r="0.59"/><circle cx="76.25" cy="36.52" r="0.59"/><circle cx="78.75" cy="36.52" r="0.59"/><circle cx="81.25" cy="36.52" r="0.59"/><circle cx="83.75" cy="36.52" r="0.59"/><circle cx="86.25" cy="36.52" r="0.59"/><circle cx="88.75" cy="36.52" r="0.59"/><circle cx="11.25" cy="38.36" r="0.59"/><circle cx="13.75" cy="38.36" r="0.59"/><circle cx="21.25" cy="38.36" r="0.59"/><circle cx="31.25" cy="38.36" r="0.59"/><circle cx="33.75" cy="38.36" r="0.59"/><circle cx="36.25" cy="38.36" r="0.59"/><circle cx="43.75" cy="38.36" r="0.59"/><circle cx="46.25" cy="38.36" r="0.59"/><circle cx="48.75" cy="38.36" r="0.59"/><circle cx="51.25" cy="38.36" r="0.59"/><circle cx="56.25" cy="38.36" r="0.59"/><circle cx="68.75" cy="38.36" r="0.59"/><circle cx="71.25" cy="38.36" r="0.59"/><circle cx="73.75" cy="38.36" r="0.59"/><circle cx="91.25" cy="38.36" r="0.59"/><circle cx="8.75" cy="40.2" r="0.59"/><circle cx="11.25" cy="40.2" r="0.59"/><circle cx="16.25" cy="40.2" r="0.59"/><circle cx="18.75" cy="40.2" r="0.59"/><circle cx="21.25" cy="40.2" r="0.59"/><circle cx="23.75" cy="40.2" r="0.59"/><circle cx="28.75" cy="40.2" r="0.59"/><circle cx="31.25" cy="40.2" r="0.59"/><circle cx="38.75" cy="40.2" r="0.59"/><circle cx="41.25" cy="40.2" r="0.59"/><circle cx="43.75" cy="40.2" r="0.59"/><circle cx="56.25" cy="40.2" r="0.59"/><circle cx="58.75" cy="40.2" r="0.59"/><circle cx="66.25" cy="40.2" r="0.59"/><circle cx="68.75" cy="40.2" r="0.59"/><circle cx="76.25" cy="40.2" r="0.59"/><circle cx="88.75" cy="40.2" r="0.59"/><circle cx="91.25" cy="40.2" r="0.59"/><circle cx="93.75" cy="40.2" r="0.59"/><circle cx="6.25" cy="42.04" r="0.59"/><circle cx="8.75" cy="42.04" r="0.59"/><circle cx="16.25" cy="42.04" r="0.59"/><circle cx="28.75" cy="42.04" r="0.59"/><circle cx="33.75" cy="42.04" r="0.59"/><circle cx="36.25" cy="42.04" r="0.59"/><circle cx="38.75" cy="42.04" r="0.59"/><circle cx="46.25" cy="42.04" r="0.59"/><circle cx="53.75" cy="42.04" r="0.59"/><circle cx="56.25" cy="42.04" r="0.59"/><circle cx="61.25" cy="42.04" r="0.59"/><circle cx="63.75" cy="42.04" r="0.59"/><circle cx="66.25" cy="42.04" r="0.59"/><circle cx="71.25" cy="42.04" r="0.59"/><circle cx="73.75" cy="42.04" r="0.59"/><circle cx="76.25" cy="42.04" r="0.59"/><circle cx="78.75" cy="42.04" r="0.59"/><circle cx="86.25" cy="42.04" r="0.59"/><circle cx="88.75" cy="42.04" r="0.59"/><circle cx="96.25" cy="42.04" r="0.59"/><circle cx="3.75" cy="43.88" r="0.59"/><circle cx="6.25" cy="43.88" r="0.59"/><circle cx="11.25" cy="43.88" r="0.59"/><circle cx="13.75" cy="43.88" r="0.59"/><circle cx="16.25" cy="43.88" r="0.59"/><circle cx="18.75" cy="43.88" r="0.59"/><circle cx="26.25" cy="43.88" r="0.59"/><circle cx="28.75" cy="43.88" r="0.59"/><circle cx="33.75" cy="43.88" r="0.59"/><circle cx="41.25" cy="43.88" r="0.59"/><circle cx="43.75" cy="43.88" r="0.59"/><circle cx="46.25" cy="43.88" r="0.59"/><circle cx="48.75" cy="43.88" r="0.59"/><circle cx="51.25" cy="43.88" r="0.59"/><circle cx="53.75" cy="43.88" r="0.59"/><circle cx="61.25" cy="43.88" r="0.59"/><circle cx="71.25" cy="43.88" r="0.59"/><circle cx="81.25" cy="43.88" r="0.59"/><circle cx="83.75" cy="43.88" r="0.59"/><circle cx="86.25" cy="43.88" r="0.59"/><circle cx="91.25" cy="43.88" r="0.59"/><circle cx="93.75" cy="43.88" r="0.59"/><circle cx="96.25" cy="43.88" r="0.59"/><circle cx="98.75" cy="43.88" r="0.59"/><circle cx="3.75" cy="45.72" r="0.59"/><circle cx="11.25" cy="45.72" r="0.59"/><circle cx="21.25" cy="45.72" r="0.59"/><circle cx="23.75" cy="45.72" r="0.59"/><circle cx="26.25" cy="45.72" r="0.59"/><circle cx="33.75" cy="45.72" r="0.59"/><circle cx="36.25" cy="45.72" r="0.59"/><circle cx="38.75" cy="45.72" r="0.59"/><circle cx="41.25" cy="45.72" r="0.59"/><circle cx="56.25" cy="45.72" r="0.59"/><circle cx="58.75" cy="45.72" r="0.59"/><circle cx="61.25" cy="45.72" r="0.59"/><circle cx="63.75" cy="45.72" r="0.59"/><circle cx="68.75" cy="45.72" r="0.59"/><circle cx="71.25" cy="45.72" r="0.59"/><circle cx="73.75" cy="45.72" r="0.59"/><circle cx="78.75" cy="45.72" r="0.59"/><circle cx="81.25" cy="45.72" r="0.59"/><circle cx="91.25" cy="45.72" r="0.59"/><circle cx="1.25" cy="47.56" r="0.59"/><circle cx="3.75" cy="47.56" r="0.59"/><circle cx="6.25" cy="47.56" r="0.59"/><circle cx="8.75" cy="47.56" r="0.59"/><circle cx="11.25" cy="47.56" r="0.59"/><circle cx="13.75" cy="47.56" r="0.59"/><circle cx="18.75" cy="47.56" r="0.59"/><circle cx="21.25" cy="47.56" r="0.59"/><circle cx="28.75" cy="47.56" r="0.59"/><circle cx="31.25" cy="47.56" r="0.59"/><circle cx="33.75" cy="47.56" r="0.59"/><circle cx="43.75" cy="47.56" r="0.59"/><circle cx="53.75" cy="47.56" r="0.59"/><circle cx="56.25" cy="47.56" r="0.59"/><circle cx="68.75" cy="47.56" r="0.59"/><circle cx="78.75" cy="47.56" r="0.59"/><circle cx="83.75" cy="47.56" r="0.59"/><circle cx="88.75" cy="47.56" r="0.59"/><circle cx="91.25" cy="47.56" r="0.59"/><circle cx="93.75" cy="47.56" r="0.59"/><circle cx="1.25" cy="49.4" r="0.59"/><circle cx="18.75" cy="49.4" r="0.59"/><circle cx="23.75" cy="49.4" r="0.59"/><circle cx="26.25" cy="49.4" r="0.59"/><circle cx="28.75" cy="49.4" r="0.59"/><circle cx="36.25" cy="49.4" r="0.59"/><circle cx="41.25" cy="49.4" r="0.59"/><circle cx="43.75" cy="49.4" r="0.59"/><circle cx="46.25" cy="49.4" r="0.59"/><circle cx="51.25" cy="49.4" r="0.59"/><circle cx="53.75" cy="49.4" r="0.59"/><circle cx="58.75" cy="49.4" r="0.59"/><circle cx="66.25" cy="49.4" r="0.59"/><circle cx="68.75" cy="49.4" r="0.59"/><circle cx="71.25" cy="49.4" r="0.59"/><circle cx="76.25" cy="49.4" r="0.59"/><circle cx="78.75" cy="49.4" r="0.59"/><circle cx="83.75" cy="49.4" r="0.59"/><circle cx="88.75" cy="49.4" r="0.59"/><circle cx="96.25" cy="49.4" r="0.59"/><circle cx="98.75" cy="49.4" r="0.59"/><circle cx="3.75" cy="51.24" r="0.59"/><circle cx="16.25" cy="51.24" r="0.59"/><circle cx="18.75" cy="51.24" r="0.59"/><circle cx="23.75" cy="51.24" r="0.59"/><circle cx="31.25" cy="51.24" r="0.59"/><circle cx="33.75" cy="51.24" r="0.59"/><circle cx="36.25" cy="51.24" r="0.59"/><circle cx="41.25" cy="51.24" r="0.59"/><circle cx="51.25" cy="51.24" r="0.59"/><circle cx="58.75" cy="51.24" r="0.59"/><circle cx="61.25" cy="51.24" r="0.59"/><circle cx="63.75" cy="51.24" r="0.59"/><circle cx="66.25" cy="51.24" r="0.59"/><circle cx="76.25" cy="51.24" r="0.59"/><circle cx="83.75" cy="51.24" r="0.59"/><circle cx="88.75" cy="51.24" r="0.59"/><circle cx="91.25" cy="51.24" r="0.59"/><circle cx="93.75" cy="51.24" r="0.59"/><circle cx="96.25" cy="51.24" r="0.59"/><circle cx="1.25" cy="53.08" r="0.59"/><circle cx="3.75" cy="53.08" r="0.59"/><circle cx="6.25" cy="53.08" r="0.59"/><circle cx="13.75" cy="53.08" r="0.59"/><circle cx="16.25" cy="53.08" r="0.59"/><circle cx="23.75" cy="53.08" r="0.59"/><circle cx="26.25" cy="53.08" r="0.59"/><circle cx="28.75" cy="53.08" r="0.59"/><circle cx="31.25" cy="53.08" r="0.59"/><circle cx="41.25" cy="53.08" r="0.59"/><circle cx="43.75" cy="53.08" r="0.59"/><circle cx="48.75" cy="53.08" r="0.59"/><circle cx="51.25" cy="53.08" r="0.59"/><circle cx="53.75" cy="53.08" r="0.59"/><circle cx="56.25" cy="53.08" r="0.59"/><circle cx="58.75" cy="53.08" r="0.59"/><circle cx="68.75" cy="53.08" r="0.59"/><circle cx="73.75" cy="53.08" r="0.59"/><circle cx="76.25" cy="53.08" r="0.59"/><circle cx="78.75" cy="53.08" r="0.59"/><circle cx="81.25" cy="53.08" r="0.59"/><circle cx="83.75" cy="53.08" r="0.59"/><circle cx="88.75" cy="53.08" r="0.59"/><circle cx="98.75" cy="53.08" r="0.59"/><circle cx="8.75" cy="54.92" r="0.59"/><circle cx="11.25" cy="54.92" r="0.59"/><circle cx="13.75" cy="54.92" r="0.59"/><circle cx="18.75" cy="54.92" r="0.59"/><circle cx="21.25" cy="54.92" r="0.59"/><circle cx="23.75" cy="54.92" r="0.59"/><circle cx="33.75" cy="54.92" r="0.59"/><circle cx="38.75" cy="54.92" r="0.59"/><circle cx="41.25" cy="54.92" r="0.59"/><circle cx="48.75" cy="54.92" r="0.59"/><circle cx="61.25" cy="54.92" r="0.59"/><circle cx="66.25" cy="54.92" r="0.59"/><circle cx="68.75" cy="54.92" r="0.59"/><circle cx="73.75" cy="54.92" r="0.59"/><circle cx="88.75" cy="54.92" r="0.59"/><circle cx="91.25" cy="54.92" r="0.59"/><circle cx="96.25" cy="54.92" r="0.59"/><circle cx="98.75" cy="54.92" r="0.59"/><circle cx="1.25" cy="56.76" r="0.59"/><circle cx="6.25" cy="56.76" r="0.59"/><circle cx="8.75" cy="56.76" r="0.59"/><circle cx="18.75" cy="56.76" r="0.59"/><circle cx="26.25" cy="56.76" r="0.59"/><circle cx="31.25" cy="56.76" r="0.59"/><circle cx="33.75" cy="56.76" r="0.59"/><circle cx="38.75" cy="56.76" r="0.59"/><circle cx="43.75" cy="56.76" r="0.59"/><circle cx="46.25" cy="56.76" r="0.59"/><circle cx="48.75" cy="56.76" r="0.59"/><circle cx="51.25" cy="56.76" r="0.59"/><circle cx="58.75" cy="56.76" r="0.59"/><circle cx="61.25" cy="56.76" r="0.59"/><circle cx="66.25" cy="56.76" r="0.59"/><circle cx="73.75" cy="56.76" r="0.59"/><circle cx="76.25" cy="56.76" r="0.59"/><circle cx="86.25" cy="56.76" r="0.59"/><circle cx="88.75" cy="56.76" r="0.59"/><circle cx="96.25" cy="56.76" r="0.59"/><circle cx="1.25" cy="58.6" r="0.59"/><circle cx="6.25" cy="58.6" r="0.59"/><circle cx="11.25" cy="58.6" r="0.59"/><circle cx="16.25" cy="58.6" r="0.59"/><circle cx="18.75" cy="58.6" r="0.59"/><circle cx="21.25" cy="58.6" r="0.59"/><circle cx="23.75" cy="58.6" r="0.59"/><circle cx="26.25" cy="58.6" r="0.59"/><circle cx="31.25" cy="58.6" r="0.59"/><circle cx="38.75" cy="58.6" r="0.59"/><circle cx="43.75" cy="58.6" r="0.59"/><circle cx="53.75" cy="58.6" r="0.59"/><circle cx="56.25" cy="58.6" r="0.59"/><circle cx="58.75" cy="58.6" r="0.59"/><circle cx="66.25" cy="58.6" r="0.59"/><circle cx="68.75" cy="58.6" r="0.59"/><circle cx="71.25" cy="58.6" r="0.59"/><circle cx="73.75" cy="58.6" r="0.59"/><circle cx="78.75" cy="58.6" r="0.59"/><circle cx="83.75" cy="58.6" r="0.59"/><circle cx="86.25" cy="58.6" r="0.59"/><circle cx="91.25" cy="58.6" r="0.59"/><circle cx="93.75" cy="58.6" r="0.59"/><circle cx="96.25" cy="58.6" r="0.59"/><circle cx="1.25" cy="60.44" r="0.59"/><circle cx="6.25" cy="60.44" r="0.59"/><circle cx="11.25" cy="60.44" r="0.59"/><circle cx="16.25" cy="60.44" r="0.59"/><circle cx="31.25" cy="60.44" r="0.59"/><circle cx="33.75" cy="60.44" r="0.59"/><circle cx="36.25" cy="60.44" r="0.59"/><circle cx="38.75" cy="60.44" r="0.59"/><circle cx="43.75" cy="60.44" r="0.59"/><circle cx="46.25" cy="60.44" r="0.59"/><circle cx="51.25" cy="60.44" r="0.59"/><circle cx="53.75" cy="60.44" r="0.59"/><circle cx="61.25" cy="60.44" r="0.59"/><circle cx="63.75" cy="60.44" r="0.59"/><circle cx="66.25" cy="60.44" r="0.59"/><circle cx="78.75" cy="60.44" r="0.59"/><circle cx="83.75" cy="60.44" r="0.59"/><circle cx="91.25" cy="60.44" r="0.59"/><circle cx="1.25" cy="62.28" r="0.59"/><circle cx="6.25" cy="62.28" r="0.59"/><circle cx="11.25" cy="62.28" r="0.59"/><circle cx="16.25" cy="62.28" r="0.59"/><circle cx="18.75" cy="62.28" r="0.59"/><circle cx="28.75" cy="62.28" r="0.59"/><circle cx="31.25" cy="62.28" r="0.59"/><circle cx="43.75" cy="62.28" r="0.59"/><circle cx="51.25" cy="62.28" r="0.59"/><circle cx="56.25" cy="62.28" r="0.59"/><circle cx="58.75" cy="62.28" r="0.59"/><circle cx="61.25" cy="62.28" r="0.59"/><circle cx="68.75" cy="62.28" r="0.59"/><circle cx="76.25" cy="62.28" r="0.59"/><circle cx="78.75" cy="62.28" r="0.59"/><circle cx="83.75" cy="62.28" r="0.59"/><circle cx="86.25" cy="62.28" r="0.59"/><circle cx="88.75" cy="62.28" r="0.59"/><circle cx="91.25" cy="62.28" r="0.59"/><circle cx="93.75" cy="62.28" r="0.59"/><circle cx="98.75" cy="62.28" r="0.59"/><circle cx="6.25" cy="64.12" r="0.59"/><circle cx="11.25" cy="64.12" r="0.59"/><circle cx="16.25" cy="64.12" r="0.59"/><circle cx="21.25" cy="64.12" r="0.59"/><circle cx="26.25" cy="64.12" r="0.59"/><circle cx="28.75" cy="64.12" r="0.59"/><circle cx="33.75" cy="64.12" r="0.59"/><circle cx="41.25" cy="64.12" r="0.59"/><circle cx="43.75" cy="64.12" r="0.59"/><circle cx="46.25" cy="64.12" r="0.59"/><circle cx="48.75" cy="64.12" r="0.59"/><circle cx="51.25" cy="64.12" r="0.59"/><circle cx="56.25" cy="64.12" r="0.59"/><circle cx="63.75" cy="64.12" r="0.59"/><circle cx="66.25" cy="64.12" r="0.59"/><circle cx="68.75" cy="64.12" r="0.59"/><circle cx="71.25" cy="64.12" r="0.59"/><circle cx="73.75" cy="64.12" r="0.59"/><circle cx="76.25" cy="64.12" r="0.59"/><circle cx="83.75" cy="64.12" r="0.59"/><circle cx="98.75" cy="64.12" r="0.59"/><circle cx="1.25" cy="65.96" r="0.59"/><circle cx="3.75" cy="65.96" r="0.59"/><circle cx="6.25" cy="65.96" r="0.59"/><circle cx="11.25" cy="65.96" r="0.59"/><circle cx="16.25" cy="65.96" r="0.59"/><circle cx="21.25" cy="65.96" r="0.59"/><circle cx="26.25" cy="65.96" r="0.59"/><circle cx="33.75" cy="65.96" r="0.59"/><circle cx="36.25" cy="65.96" r="0.59"/><circle cx="38.75" cy="65.96" r="0.59"/><circle cx="41.25" cy="65.96" r="0.59"/><circle cx="56.25" cy="65.96" r="0.59"/><circle cx="58.75" cy="65.96" r="0.59"/><circle cx="61.25" cy="65.96" r="0.59"/><circle cx="63.75" cy="65.96" r="0.59"/><circle cx="78.75" cy="65.96" r="0.59"/><circle cx="81.25" cy="65.96" r="0.59"/><circle cx="83.75" cy="65.96" r="0.59"/><circle cx="86.25" cy="65.96" r="0.59"/><circle cx="96.25" cy="65.96" r="0.59"/><circle cx="98.75" cy="65.96" r="0.59"/><circle cx="11.25" cy="67.8" r="0.59"/><circle cx="16.25" cy="67.8" r="0.59"/><circle cx="21.25" cy="67.8" r="0.59"/><circle cx="26.25" cy="67.8" r="0.59"/><circle cx="28.75" cy="67.8" r="0.59"/><circle cx="31.25" cy="67.8" r="0.59"/><circle cx="33.75" cy="67.8" r="0.59"/><circle cx="43.75" cy="67.8" r="0.59"/><circle cx="53.75" cy="67.8" r="0.59"/><circle cx="56.25" cy="67.8" r="0.59"/><circle cx="66.25" cy="67.8" r="0.59"/><circle cx="76.25" cy="67.8" r="0.59"/><circle cx="78.75" cy="67.8" r="0.59"/><circle cx="88.75" cy="67.8" r="0.59"/><circle cx="93.75" cy="67.8" r="0.59"/><circle cx="96.25" cy="67.8" r="0.59"/><circle cx="8.75" cy="69.64" r="0.59"/><circle cx="11.25" cy="69.64" r="0.59"/><circle cx="16.25" cy="69.64" r="0.59"/><circle cx="21.25" cy="69.64" r="0.59"/><circle cx="26.25" cy="69.64" r="0.59"/><circle cx="36.25" cy="69.64" r="0.59"/><circle cx="41.25" cy="69.64" r="0.59"/><circle cx="43.75" cy="69.64" r="0.59"/><circle cx="46.25" cy="69.64" r="0.59"/><circle cx="51.25" cy="69.64" r="0.59"/><circle cx="53.75" cy="69.64" r="0.59"/><circle cx="58.75" cy="69.64" r="0.59"/><circle cx="63.75" cy="69.64" r="0.59"/><circle cx="66.25" cy="69.64" r="0.59"/><circle cx="68.75" cy="69.64" r="0.59"/><circle cx="73.75" cy="69.64" r="0.59"/><circle cx="76.25" cy="69.64" r="0.59"/><circle cx="81.25" cy="69.64" r="0.59"/><circle cx="86.25" cy="69.64" r="0.59"/><circle cx="88.75" cy="69.64" r="0.59"/><circle cx="93.75" cy="69.64" r="0.59"/><circle cx="98.75" cy="69.64" r="0.59"/><circle cx="1.25" cy="71.48" r="0.59"/><circle cx="6.25" cy="71.48" r="0.59"/><circle cx="8.75" cy="71.48" r="0.59"/><circle cx="16.25" cy="71.48" r="0.59"/><circle cx="21.25" cy="71.48" r="0.59"/><circle cx="26.25" cy="71.48" r="0.59"/><circle cx="28.75" cy="71.48" r="0.59"/><circle cx="33.75" cy="71.48" r="0.59"/><circle cx="36.25" cy="71.48" r="0.59"/><circle cx="41.25" cy="71.48" r="0.59"/><circle cx="51.25" cy="71.48" r="0.59"/><circle cx="58.75" cy="71.48" r="0.59"/><circle cx="63.75" cy="71.48" r="0.59"/><circle cx="73.75" cy="71.48" r="0.59"/><circle cx="81.25" cy="71.48" r="0.59"/><circle cx="86.25" cy="71.48" r="0.59"/><circle cx="93.75" cy="71.48" r="0.59"/><circle cx="98.75" cy="71.48" r="0.59"/><circle cx="6.25" cy="73.32" r="0.59"/><circle cx="11.25" cy="73.32" r="0.59"/><circle cx="13.75" cy="73.32" r="0.59"/><circle cx="16.25" cy="73.32" r="0.59"/><circle cx="21.25" cy="73.32" r="0.59"/><circle cx="26.25" cy="73.32" r="0.59"/><circle cx="33.75" cy="73.32" r="0.59"/><circle cx="41.25" cy="73.32" r="0.59"/><circle cx="43.75" cy="73.32" r="0.59"/><circle cx="48.75" cy="73.32" r="0.59"/><circle cx="51.25" cy="73.32" r="0.59"/><circle cx="53.75" cy="73.32" r="0.59"/><circle cx="56.25" cy="73.32" r="0.59"/><circle cx="58.75" cy="73.32" r="0.59"/><circle cx="63.75" cy="73.32" r="0.59"/><circle cx="66.25" cy="73.32" r="0.59"/><circle cx="71.25" cy="73.32" r="0.59"/><circle cx="73.75" cy="73.32" r="0.59"/><circle cx="76.25" cy="73.32" r="0.59"/><circle cx="78.75" cy="73.32" r="0.59"/><circle cx="81.25" cy="73.32" r="0.59"/><circle cx="86.25" cy="73.32" r="0.59"/><circle cx="88.75" cy="73.32" r="0.59"/><circle cx="91.25" cy="73.32" r="0.59"/><circle cx="93.75" cy="73.32" r="0.59"/><circle cx="98.75" cy="73.32" r="0.59"/><circle cx="1.25" cy="75.16" r="0.59"/><circle cx="3.75" cy="75.16" r="0.59"/><circle cx="6.25" cy="75.16" r="0.59"/><circle cx="11.25" cy="75.16" r="0.59"/><circle cx="21.25" cy="75.16" r="0.59"/><circle cx="26.25" cy="75.16" r="0.59"/><circle cx="28.75" cy="75.16" r="0.59"/><circle cx="31.25" cy="75.16" r="0.59"/><circle cx="33.75" cy="75.16" r="0.59"/><circle cx="36.25" cy="75.16" r="0.59"/><circle cx="38.75" cy="75.16" r="0.59"/><circle cx="41.25" cy="75.16" r="0.59"/><circle cx="48.75" cy="75.16" r="0.59"/><circle cx="63.75" cy="75.16" r="0.59"/><circle cx="71.25" cy="75.16" r="0.59"/><circle cx="86.25" cy="75.16" r="0.59"/><circle cx="98.75" cy="75.16" r="0.59"/><circle cx="11.25" cy="77" r="0.59"/><circle cx="13.75" cy="77" r="0.59"/><circle cx="18.75" cy="77" r="0.59"/><circle cx="21.25" cy="77" r="0.59"/><circle cx="26.25" cy="77" r="0.59"/><circle cx="43.75" cy="77" r="0.59"/><circle cx="46.25" cy="77" r="0.59"/><circle cx="48.75" cy="77" r="0.59"/><circle cx="51.25" cy="77" r="0.59"/><circle cx="61.25" cy="77" r="0.59"/><circle cx="63.75" cy="77" r="0.59"/><circle cx="66.25" cy="77" r="0.59"/><circle cx="68.75" cy="77" r="0.59"/><circle cx="71.25" cy="77" r="0.59"/><circle cx="73.75" cy="77" r="0.59"/><circle cx="83.75" cy="77" r="0.59"/><circle cx="86.25" cy="77" r="0.59"/><circle cx="88.75" cy="77" r="0.59"/><circle cx="96.25" cy="77" r="0.59"/><circle cx="98.75" cy="77" r="0.59"/><circle cx="1.25" cy="78.84" r="0.59"/><circle cx="8.75" cy="78.84" r="0.59"/><circle cx="11.25" cy="78.84" r="0.59"/><circle cx="18.75" cy="78.84" r="0.59"/><circle cx="26.25" cy="78.84" r="0.59"/><circle cx="28.75" cy="78.84" r="0.59"/><circle cx="41.25" cy="78.84" r="0.59"/><circle cx="43.75" cy="78.84" r="0.59"/><circle cx="53.75" cy="78.84" r="0.59"/><circle cx="58.75" cy="78.84" r="0.59"/><circle cx="61.25" cy="78.84" r="0.59"/><circle cx="76.25" cy="78.84" r="0.59"/><circle cx="81.25" cy="78.84" r="0.59"/><circle cx="83.75" cy="78.84" r="0.59"/><circle cx="91.25" cy="78.84" r="0.59"/><circle cx="93.75" cy="78.84" r="0.59"/><circle cx="96.25" cy="78.84" r="0.59"/><circle cx="1.25" cy="80.68" r="0.59"/><circle cx="3.75" cy="80.68" r="0.59"/><circle cx="6.25" cy="80.68" r="0.59"/><circle cx="8.75" cy="80.68" r="0.59"/><circle cx="13.75" cy="80.68" r="0.59"/><circle cx="16.25" cy="80.68" r="0.59"/><circle cx="18.75" cy="80.68" r="0.59"/><circle cx="21.25" cy="80.68" r="0.59"/><circle cx="23.75" cy="80.68" r="0.59"/><circle cx="26.25" cy="80.68" r="0.59"/><circle cx="31.25" cy="80.68" r="0.59"/><circle cx="38.75" cy="80.68" r="0.59"/><circle cx="41.25" cy="80.68" r="0.59"/><circle cx="46.25" cy="80.68" r="0.59"/><circle cx="51.25" cy="80.68" r="0.59"/><circle cx="53.75" cy="80.68" r="0.59"/><circle cx="58.75" cy="80.68" r="0.59"/><circle cx="63.75" cy="80.68" r="0.59"/><circle cx="73.75" cy="80.68" r="0.59"/><circle cx="76.25" cy="80.68" r="0.59"/><circle cx="81.25" cy="80.68" r="0.59"/><circle cx="86.25" cy="80.68" r="0.59"/><circle cx="88.75" cy="80.68" r="0.59"/><circle cx="91.25" cy="80.68" r="0.59"/><circle cx="1.25" cy="82.52" r="0.59"/><circle cx="13.75" cy="82.52" r="0.59"/><circle cx="31.25" cy="82.52" r="0.59"/><circle cx="33.75" cy="82.52" r="0.59"/><circle cx="36.25" cy="82.52" r="0.59"/><circle cx="38.75" cy="82.52" r="0.59"/><circle cx="46.25" cy="82.52" r="0.59"/><circle cx="51.25" cy="82.52" r="0.59"/><circle cx="58.75" cy="82.52" r="0.59"/><circle cx="63.75" cy="82.52" r="0.59"/><circle cx="66.25" cy="82.52" r="0.59"/><circle cx="71.25" cy="82.52" r="0.59"/><circle cx="73.75" cy="82.52" r="0.59"/><circle cx="81.25" cy="82.52" r="0.59"/><circle cx="86.25" cy="82.52" r="0.59"/><circle cx="93.75" cy="82.52" r="0.59"/><circle cx="98.75" cy="82.52" r="0.59"/><circle cx="3.75" cy="84.36" r="0.59"/><circle cx="11.25" cy="84.36" r="0.59"/><circle cx="13.75" cy="84.36" r="0.59"/><circle cx="16.25" cy="84.36" r="0.59"/><circle cx="28.75" cy="84.36" r="0.59"/><circle cx="31.25" cy="84.36" r="0.59"/><circle cx="41.25" cy="84.36" r="0.59"/><circle cx="43.75" cy="84.36" r="0.59"/><circle cx="46.25" cy="84.36" r="0.59"/><circle cx="51.25" cy="84.36" r="0.59"/><circle cx="53.75" cy="84.36" r="0.59"/><circle cx="56.25" cy="84.36" r="0.59"/><circle cx="58.75" cy="84.36" r="0.59"/><circle cx="63.75" cy="84.36" r="0.59"/><circle cx="71.25" cy="84.36" r="0.59"/><circle cx="76.25" cy="84.36" r="0.59"/><circle cx="78.75" cy="84.36" r="0.59"/><circle cx="81.25" cy="84.36" r="0.59"/><circle cx="86.25" cy="84.36" r="0.59"/><circle cx="88.75" cy="84.36" r="0.59"/><circle cx="91.25" cy="84.36" r="0.59"/><circle cx="93.75" cy="84.36" r="0.59"/><circle cx="98.75" cy="84.36" r="0.59"/><circle cx="3.75" cy="86.2" r="0.59"/><circle cx="6.25" cy="86.2" r="0.59"/><circle cx="8.75" cy="86.2" r="0.59"/><circle cx="11.25" cy="86.2" r="0.59"/><circle cx="18.75" cy="86.2" r="0.59"/><circle cx="26.25" cy="86.2" r="0.59"/><circle cx="28.75" cy="86.2" r="0.59"/><circle cx="33.75" cy="86.2" r="0.59"/><circle cx="38.75" cy="86.2" r="0.59"/><circle cx="41.25" cy="86.2" r="0.59"/><circle cx="51.25" cy="86.2" r="0.59"/><circle cx="63.75" cy="86.2" r="0.59"/><circle cx="66.25" cy="86.2" r="0.59"/><circle cx="68.75" cy="86.2" r="0.59"/><circle cx="71.25" cy="86.2" r="0.59"/><circle cx="76.25" cy="86.2" r="0.59"/><circle cx="86.25" cy="86.2" r="0.59"/><circle cx="98.75" cy="86.2" r="0.59"/><circle cx="3.75" cy="88.04" r="0.59"/><circle cx="13.75" cy="88.04" r="0.59"/><circle cx="16.25" cy="88.04" r="0.59"/><circle cx="18.75" cy="88.04" r="0.59"/><circle cx="21.25" cy="88.04" r="0.59"/><circle cx="23.75" cy="88.04" r="0.59"/><circle cx="26.25" cy="88.04" r="0.59"/><circle cx="33.75" cy="88.04" r="0.59"/><circle cx="38.75" cy="88.04" r="0.59"/><circle cx="43.75" cy="88.04" r="0.59"/><circle cx="48.75" cy="88.04" r="0.59"/><circle cx="51.25" cy="88.04" r="0.59"/><circle cx="53.75" cy="88.04" r="0.59"/><circle cx="61.25" cy="88.04" r="0.59"/><circle cx="63.75" cy="88.04" r="0.59"/><circle cx="76.25" cy="88.04" r="0.59"/><circle cx="78.75" cy="88.04" r="0.59"/><circle cx="83.75" cy="88.04" r="0.59"/><circle cx="86.25" cy="88.04" r="0.59"/><circle cx="88.75" cy="88.04" r="0.59"/><circle cx="96.25" cy="88.04" r="0.59"/><circle cx="98.75" cy="88.04" r="0.59"/><circle cx="3.75" cy="89.88" r="0.59"/><circle cx="6.25" cy="89.88" r="0.59"/><circle cx="11.25" cy="89.88" r="0.59"/><circle cx="13.75" cy="89.88" r="0.59"/><circle cx="28.75" cy="89.88" r="0.59"/><circle cx="31.25" cy="89.88" r="0.59"/><circle cx="33.75" cy="89.88" r="0.59"/><circle cx="38.75" cy="89.88" r="0.59"/><circle cx="43.75" cy="89.88" r="0.59"/><circle cx="48.75" cy="89.88" r="0.59"/><circle cx="56.25" cy="89.88" r="0.59"/><circle cx="58.75" cy="89.88" r="0.59"/><circle cx="61.25" cy="89.88" r="0.59"/><circle cx="66.25" cy="89.88" r="0.59"/><circle cx="73.75" cy="89.88" r="0.59"/><circle cx="76.25" cy="89.88" r="0.59"/><circle cx="83.75" cy="89.88" r="0.59"/><circle cx="91.25" cy="89.88" r="0.59"/><circle cx="93.75" cy="89.88" r="0.59"/><circle cx="96.25" cy="89.88" r="0.59"/><circle cx="1.25" cy="91.72" r="0.59"/><circle cx="3.75" cy="91.72" r="0.59"/><circle cx="11.25" cy="91.72" r="0.59"/><circle cx="16.25" cy="91.72" r="0.59"/><circle cx="26.25" cy="91.72" r="0.59"/><circle cx="28.75" cy="91.72" r="0.59"/><circle cx="38.75" cy="91.72" r="0.59"/><circle cx="43.75" cy="91.72" r="0.59"/><circle cx="48.75" cy="91.72" r="0.59"/><circle cx="51.25" cy="91.72" r="0.59"/><circle cx="53.75" cy="91.72" r="0.59"/><circle cx="56.25" cy="91.72" r="0.59"/><circle cx="66.25" cy="91.72" r="0.59"/><circle cx="68.75" cy="91.72" r="0.59"/><circle cx="71.25" cy="91.72" r="0.59"/><circle cx="73.75" cy="91.72" r="0.59"/><circle cx="78.75" cy="91.72" r="0.59"/><circle cx="81.25" cy="91.72" r="0.59"/><circle cx="83.75" cy="91.72" r="0.59"/><circle cx="86.25" cy="91.72" r="0.59"/><circle cx="88.75" cy="91.72" r="0.59"/><circle cx="91.25" cy="91.72" r="0.59"/><circle cx="98.75" cy="91.72" r="0.59"/><circle cx="6.25" cy="93.56" r="0.59"/><circle cx="8.75" cy="93.56" r="0.59"/><circle cx="11.25" cy="93.56" r="0.59"/><circle cx="16.25" cy="93.56" r="0.59"/><circle cx="18.75" cy="93.56" r="0.59"/><circle cx="23.75" cy="93.56" r="0.59"/><circle cx="26.25" cy="93.56" r="0.59"/><circle cx="31.25" cy="93.56" r="0.59"/><circle cx="36.25" cy="93.56" r="0.59"/><circle cx="38.75" cy="93.56" r="0.59"/><circle cx="43.75" cy="93.56" r="0.59"/><circle cx="48.75" cy="93.56" r="0.59"/><circle cx="58.75" cy="93.56" r="0.59"/><circle cx="63.75" cy="93.56" r="0.59"/><circle cx="66.25" cy="93.56" r="0.59"/><circle cx="78.75" cy="93.56" r="0.59"/><circle cx="93.75" cy="93.56" r="0.59"/><circle cx="96.25" cy="93.56" r="0.59"/><circle cx="98.75" cy="93.56" r="0.59"/><circle cx="1.25" cy="95.4" r="0.59"/><circle cx="3.75" cy="95.4" r="0.59"/><circle cx="6.25" cy="95.4" r="0.59"/><circle cx="16.25" cy="95.4" r="0.59"/><circle cx="23.75" cy="95.4" r="0.59"/><circle cx="31.25" cy="95.4" r="0.59"/><circle cx="36.25" cy="95.4" r="0.59"/><circle cx="43.75" cy="95.4" r="0.59"/><circle cx="48.75" cy="95.4" r="0.59"/><circle cx="51.25" cy="95.4" r="0.59"/><circle cx="56.25" cy="95.4" r="0.59"/><circle cx="58.75" cy="95.4" r="0.59"/><circle cx="63.75" cy="95.4" r="0.59"/><circle cx="68.75" cy="95.4" r="0.59"/><circle cx="76.25" cy="95.4" r="0.59"/><circle cx="78.75" cy="95.4" r="0.59"/><circle cx="81.25" cy="95.4" r="0.59"/><circle cx="91.25" cy="95.4" r="0.59"/><circle cx="93.75" cy="95.4" r="0.59"/><circle cx="1.25" cy="97.24" r="0.59"/><circle cx="8.75" cy="97.24" r="0.59"/><circle cx="13.75" cy="97.24" r="0.59"/><circle cx="16.25" cy="97.24" r="0.59"/><circle cx="18.75" cy="97.24" r="0.59"/><circle cx="21.25" cy="97.24" r="0.59"/><circle cx="23.75" cy="97.24" r="0.59"/><circle cx="26.25" cy="97.24" r="0.59"/><circle cx="28.75" cy="97.24" r="0.59"/><circle cx="31.25" cy="97.24" r="0.59"/><circle cx="36.25" cy="97.24" r="0.59"/><circle cx="38.75" cy="97.24" r="0.59"/><circle cx="41.25" cy="97.24" r="0.59"/><circle cx="43.75" cy="97.24" r="0.59"/><circle cx="48.75" cy="97.24" r="0.59"/><circle cx="56.25" cy="97.24" r="0.59"/><circle cx="63.75" cy="97.24" r="0.59"/><circle cx="68.75" cy="97.24" r="0.59"/><circle cx="71.25" cy="97.24" r="0.59"/><circle cx="73.75" cy="97.24" r="0.59"/><circle cx="76.25" cy="97.24" r="0.59"/><circle cx="83.75" cy="97.24" r="0.59"/><circle cx="88.75" cy="97.24" r="0.59"/><circle cx="91.25" cy="97.24" r="0.59"/><circle cx="96.25" cy="97.24" r="0.59"/><circle cx="98.75" cy="97.24" r="0.59"/><circle cx="3.75" cy="99.08" r="0.59"/><circle cx="6.25" cy="99.08" r="0.59"/><circle cx="8.75" cy="99.08" r="0.59"/><circle cx="13.75" cy="99.08" r="0.59"/><circle cx="36.25" cy="99.08" r="0.59"/><circle cx="48.75" cy="99.08" r="0.59"/><circle cx="51.25" cy="99.08" r="0.59"/><circle cx="53.75" cy="99.08" r="0.59"/><circle cx="56.25" cy="99.08" r="0.59"/><circle cx="58.75" cy="99.08" r="0.59"/><circle cx="61.25" cy="99.08" r="0.59"/><circle cx="63.75" cy="99.08" r="0.59"/><circle cx="68.75" cy="99.08" r="0.59"/><circle cx="78.75" cy="99.08" r="0.59"/><circle cx="81.25" cy="99.08" r="0.59"/><circle cx="83.75" cy="99.08" r="0.59"/><circle cx="88.75" cy="99.08" r="0.59"/><circle cx="96.25" cy="99.08" r="0.59"/></g>
</g>
</svg>
</svg>