<svg width="900" height="200" viewBox="0 0 900 200" fill="none" xmlns="http://www.w3.org/2000/svg">
  <g transform="translate(25, 25) scale(0.86)" fill="#755CFE">
    <path d="M172.434 99.5561C173.403 100.116 173.403 101.514 172.434 102.074L89.4883 149.962C88.5193 150.522 87.3081 149.822 87.3081 148.704V101.652C87.3081 101.133 87.031 100.653 86.5813 100.393L45.837 76.8695C44.868 76.31 44.868 74.9114 45.837 74.352L86.5813 50.8291C87.031 50.5695 87.5851 50.5695 88.0348 50.8291L172.434 99.5561ZM76.4612 106.236C76.9109 106.496 77.188 106.976 77.188 107.495V142.86C77.188 143.979 75.9767 144.678 75.0078 144.119L2.18261 102.074C1.21363 101.514 1.21362 100.116 2.1826 99.5561L32.8099 81.8731C33.2596 81.6134 33.8136 81.6134 34.2633 81.8731L76.4612 106.236Z"/>
    <path d="M19.7537 50.4062L87.3056 89.4072L154.857 50.4062L87.3056 11.4053L19.7537 50.4062ZM88.564 100.085L88.4296 100.156C87.777 100.463 86.8342 100.463 86.1816 100.156L86.0472 100.085L1.25845 51.1323C0.606997 50.756 0.566481 50.1609 1.13666 49.7573L1.25845 49.6792L86.0472 0.726562C86.7423 0.325426 87.8689 0.325428 88.564 0.726562L173.353 49.6792L173.475 49.7573C174.045 50.1609 174.004 50.756 173.353 51.1323L88.564 100.085Z"/>
  </g>
  <text x="215" y="148" font-family="'Britti Sans', 'IBM Plex Sans', -apple-system, BlinkMacSystemFont, system-ui, sans-serif" font-size="140" font-weight="500" fill="#F4F4F4" letter-spacing="-3">Lemma</text>
</svg>
